<svg height='100px' width='100px'  fill="#7ab1cc" xmlns="http://www.w3.org/2000/svg" xmlns:xlink="http://www.w3.org/1999/xlink" version="1.0" x="0px" y="0px" viewBox="0 0 128 128" style="enable-background:new 0 0 128 128;" xml:space="preserve"><g><path d="M64.3,104.7H40.9V74.9h26.4v-5H40.9V40.7h29.2v26.4h5V40.7H105v25.6h5V0.9H1.1v108.8h63.2V104.7z M75.2,5.9H105v29.8H75.2   V5.9z M40.9,5.9h29.2v29.8H40.9V5.9z M35.9,104.7H6.1V74.9h29.8V104.7z M35.9,69.9H6.1V40.7h29.8V69.9z M35.9,35.7H6.1V5.9h29.8   V35.7z"></path><path d="M102.9,70.2V64H87.7v6.3c-1.7,0.5-3.3,1.2-4.9,2l-4.4-4.4L67.6,78.6L72,83c-0.8,1.6-1.5,3.2-2,4.9h-6.3v15.2H70   c0.5,1.7,1.2,3.3,2,4.9l-4.4,4.4l10.8,10.8l4.4-4.4c1.6,0.8,3.2,1.5,4.9,2v6.3h15.2v-6.3c1.7-0.5,3.3-1.2,4.9-2l4.4,4.4l10.8-10.8   l-4.4-4.4c0.8-1.6,1.5-3.2,2-4.9h6.3V87.9h-6.3c-0.5-1.7-1.2-3.3-2-4.9l4.4-4.4l-10.8-10.8l-4.4,4.4   C106.3,71.4,104.6,70.7,102.9,70.2z M112.2,74.9l3.7,3.7l-3.7,3.7l1.1,1.7c1.4,2.1,2.4,4.5,2.9,7l0.4,2h5.2v5.2h-5.2l-0.4,2   c-0.5,2.5-1.5,4.8-2.9,7l-1.1,1.7l3.7,3.7l-3.7,3.7l-3.7-3.7l-1.7,1.1c-2.1,1.4-4.5,2.4-7,2.9l-2,0.4v5.2h-5.2v-5.2l-2-0.4   c-2.5-0.5-4.8-1.5-7-2.9l-1.7-1.1l-3.7,3.7l-3.7-3.7l3.7-3.7l-1.1-1.7c-1.4-2.1-2.4-4.5-2.9-7l-0.4-2h-5.2v-5.2H74l0.4-2   c0.5-2.5,1.5-4.8,2.9-7l1.1-1.7l-3.7-3.7l3.7-3.7l3.7,3.7l1.7-1.1c2.1-1.4,4.5-2.4,7-2.9l2-0.4V69h5.2v5.2l2,0.4   c2.5,0.5,4.8,1.5,7,2.9l1.7,1.1L112.2,74.9z"></path><path d="M77.9,95.5c0,9.6,7.8,17.4,17.4,17.4s17.4-7.8,17.4-17.4c0-9.6-7.8-17.4-17.4-17.4S77.9,85.9,77.9,95.5z M107.7,95.5   c0,6.8-5.6,12.4-12.4,12.4c-6.8,0-12.4-5.6-12.4-12.4s5.6-12.4,12.4-12.4C102.1,83.1,107.7,88.7,107.7,95.5z"></path></g></svg>