<svg height='100px' width='100px'  fill="#c67f7f" xmlns="http://www.w3.org/2000/svg" xmlns:xlink="http://www.w3.org/1999/xlink" xml:space="preserve" version="1.1" style="shape-rendering:geometricPrecision;text-rendering:geometricPrecision;image-rendering:optimizeQuality;" viewBox="0 0 348 409" x="0px" y="0px" fill-rule="evenodd" clip-rule="evenodd"><defs><style type="text/css">
   
    .fil0 {fill:#c67f7f;fill-rule:nonzero}
   
  </style></defs><g><path class="fil0" d="M22 45l304 0c12,0 22,10 22,22l0 35c0,12 -10,22 -22,22l-6 0 0 222c0,35 -29,63 -64,63l-164 0c-35,0 -63,-28 -63,-63l0 -222 -7 0c-12,0 -22,-10 -22,-22l0 -35c0,-12 10,-22 22,-22zm272 79l-240 0 0 222c0,21 17,38 38,38l164 0c21,0 38,-17 38,-38l0 -222zm29 -53l-298 0 0 28 298 0 0 -28z"></path><path class="fil0" d="M106 187c0,-7 6,-12 13,-12 7,0 12,5 12,12l0 133c0,7 -5,13 -12,13 -7,0 -13,-6 -13,-13l0 -133z"></path><path class="fil0" d="M161 187c0,-7 6,-12 13,-12 7,0 13,5 13,12l0 133c0,7 -6,13 -13,13 -7,0 -13,-6 -13,-13l0 -133z"></path><path class="fil0" d="M217 187c0,-7 5,-12 12,-12 7,0 13,5 13,12l0 133c0,7 -6,13 -13,13 -7,0 -12,-6 -12,-13l0 -133z"></path><path class="fil0" d="M119 25c-7,0 -13,-5 -13,-12 0,-7 6,-13 13,-13l110 0c7,0 13,6 13,13 0,7 -6,12 -13,12l-110 0z"></path></g></svg>