<svg height='100px' width='100px'  fill="#7ab1cc" xmlns="http://www.w3.org/2000/svg" xmlns:xlink="http://www.w3.org/1999/xlink" xml:space="preserve" version="1.1" style="shape-rendering:geometricPrecision;text-rendering:geometricPrecision;image-rendering:optimizeQuality;" viewBox="0 0 351 323" x="0px" y="0px" fill-rule="evenodd" clip-rule="evenodd"><defs><style type="text/css">
   
    .fil0 {fill:#7ab1cc;fill-rule:nonzero}
   
  </style></defs><g><path class="fil0" d="M37 44l35 -36c12,-10 28,-11 39,0l227 227c2,2 3,4 3,6l10 70c1,7 -5,13 -11,12l-70 -11c-3,0 -5,-1 -6,-3l-227 -227c-6,-5 -8,-12 -8,-19 0,-7 3,-14 8,-19zm25 35l45 -46 -11 -11c-2,-3 -7,-3 -9,0l-36 36c-2,1 -2,3 -2,5 0,2 0,3 2,5l11 11zm59 -32l-45 46 200 200 54 8 -8 -54 -201 -200z"></path><path class="fil0" d="M229 303c6,0 10,4 10,10 0,5 -4,10 -10,10l-172 0c-5,0 -10,-4 -10,-10 0,-5 5,-10 10,-10l172 0z"></path><path class="fil0" d="M20 303c6,0 10,4 11,10 0,5 -5,10 -10,10l-11 0c-5,0 -10,-4 -10,-10 0,-5 4,-10 10,-10l10 0z"></path></g></svg>