<svg height='100px' width='100px'  fill="#9ec18e" xmlns="http://www.w3.org/2000/svg" xmlns:xlink="http://www.w3.org/1999/xlink" version="1.1" viewBox="-24 -4 260 260" overflow="visible" enable-background="new -24 -4 260 260" xml:space="preserve" x="0px" y="0px"><g><path d="M36.226,132.004h16.238l8.501,17.611l8.21-17.611h16.06L70.399,159.73l16.258,29.522H70.064l-9.393-18.394l-9.452,18.394   H34.744l16.475-29.836L36.226,132.004z"></path><path d="M91.4,132.004h14.756v43.125h22.993v14.125H91.4V132.004z"></path><path d="M133.316,170.313l14.047-1.059c0.302,2.741,0.916,4.829,1.847,6.266c1.513,2.324,3.673,3.484,6.481,3.484   c2.095,0,3.709-0.592,4.845-1.777c1.134-1.186,1.7-2.56,1.7-4.121c0-1.484-0.537-2.813-1.612-3.985   c-1.076-1.173-3.589-2.278-7.536-3.32c-6.464-1.745-11.072-4.063-13.826-6.958c-2.777-2.893-4.166-6.58-4.166-11.064   c0-2.944,0.711-5.727,2.133-8.346c1.42-2.619,3.559-4.68,6.412-6.179c2.854-1.498,6.766-2.248,11.735-2.248   c6.099,0,10.748,1.362,13.949,4.086c3.2,2.726,5.104,7.058,5.713,13.001l-13.927,0.977c-0.368-2.575-1.145-4.448-2.325-5.619   c-1.181-1.17-2.812-1.756-4.892-1.756c-1.713,0-3.002,0.437-3.869,1.31c-0.866,0.873-1.301,1.935-1.301,3.185   c0,0.912,0.358,1.731,1.075,2.461c0.694,0.756,2.343,1.459,4.946,2.109c6.441,1.668,11.059,3.354,13.845,5.061   c2.787,1.705,4.814,3.822,6.083,6.349c1.27,2.526,1.904,5.353,1.904,8.478c0,3.674-0.848,7.06-2.537,10.158   c-1.691,3.1-4.057,5.45-7.091,7.053c-3.037,1.601-6.863,2.401-11.481,2.401c-8.111,0-13.729-1.877-16.851-5.631   C135.496,180.869,133.729,176.1,133.316,170.313z"></path></g><path d="M192.509,67.108l-50.922-49.527C134.333,10.526,120.725,5,110.605,5H27.5C15.093,5,5,15.093,5,27.5v197.203  c0,12.406,10.093,22.5,22.5,22.5h155.533c12.406,0,22.5-10.094,22.5-22.5V97.943C205.533,87.586,199.934,74.33,192.509,67.108z   M182.05,77.861c1.803,1.753,3.534,4.377,4.963,7.285h-56.329c-4.136,0-7.5-3.364-7.5-7.5V23.249  c3.154,1.44,6.032,3.226,7.944,5.086L182.05,77.861z M183.033,232.203H27.5c-4.136,0-7.5-3.364-7.5-7.5V27.5  c0-4.136,3.364-7.5,7.5-7.5h80.684v57.646c0,12.407,10.094,22.5,22.5,22.5h59.85v124.557  C190.533,228.839,187.169,232.203,183.033,232.203z"></path></svg>