<svg height='100px' width='100px'  fill="#7ab1cc" xmlns="http://www.w3.org/2000/svg" xmlns:xlink="http://www.w3.org/1999/xlink" xml:space="preserve" version="1.1" style="shape-rendering:geometricPrecision;text-rendering:geometricPrecision;image-rendering:optimizeQuality;" viewBox="0 0 438 446" x="0px" y="0px" fill-rule="evenodd" clip-rule="evenodd"><defs><style type="text/css">
   
    .fil0 {fill:#7ab1cc;fill-rule:nonzero}
   
  </style></defs><g><path class="fil0" d="M47 108l110 96c3,2 5,6 5,10l0 142 114 57 0 -200c0,-4 2,-8 5,-10l110 -95 -344 0zm385 -2l-131 113 0 214c0,9 -10,16 -18,12l-138 -70c-5,-1 -8,-6 -8,-11l0 -145 -131 -113c-4,-2 -6,-6 -6,-11l0 -82c0,-8 6,-13 13,-13l412 0c7,0 13,6 13,13l0 82c0,5 -3,9 -6,11zm-20 -81l-387 0 0 58 387 0 0 -58z"></path></g></svg>