<svg xmlns="http://www.w3.org/2000/svg" viewBox="0 0 323.83 47.18"><defs><style>.cls-1{fill:#fff;}.cls-2,.cls-3{fill:none;stroke-miterlimit:10;}.cls-2{stroke:#000;stroke-width:3.13px;}.cls-3{stroke:#fff;stroke-width:2.74px;}</style></defs><title>Recurso 1</title><g id="Capa_2" data-name="Capa 2"><g id="Capa_1-2" data-name="Capa 1"><path d="M19.51,1.54V36.12a10.89,10.89,0,0,1-2.92,7.76,10.87,10.87,0,0,1-3.46,2.41,11.36,11.36,0,0,1-4.68.89,9.22,9.22,0,0,1-5.18-1.36A17.54,17.54,0,0,1,0,43.11l5.09-4.06a6.46,6.46,0,0,0,1.62,1.17,4.13,4.13,0,0,0,1.94.48A4.77,4.77,0,0,0,10,40.48a3.75,3.75,0,0,0,1.46-.86A4.11,4.11,0,0,0,12.59,38,7.33,7.33,0,0,0,13,35.23V1.54Z"/><path d="M25.62,46.8V1.54H44.94V7.65H32.1V20.93H43.29V27H32.1V40.32H44.94V46.8Z"/><path d="M49.33,46.8V1.54h6.48V46.8Z"/><path d="M83.08,14.57H76.59V13.11a6.9,6.9,0,0,0-1-3.84A3.89,3.89,0,0,0,72,7.65a4.16,4.16,0,0,0-2.16.5,4.32,4.32,0,0,0-1.34,1.28,5.38,5.38,0,0,0-.7,1.87,12.93,12.93,0,0,0-.19,2.19,19.74,19.74,0,0,0,.1,2.23,4.28,4.28,0,0,0,.47,1.59,3.66,3.66,0,0,0,1.12,1.21,10.5,10.5,0,0,0,2,1l5,2a12.28,12.28,0,0,1,3.49,1.94A8.35,8.35,0,0,1,81.87,26a11.86,11.86,0,0,1,.95,3.46,34.16,34.16,0,0,1,.26,4.42,23.49,23.49,0,0,1-.57,5.31,11.16,11.16,0,0,1-1.85,4.16,9.13,9.13,0,0,1-3.49,2.8,12.46,12.46,0,0,1-5.28,1,11.5,11.5,0,0,1-4.38-.82A10.42,10.42,0,0,1,64,44.07a11.1,11.1,0,0,1-2.32-3.4,10.35,10.35,0,0,1-.86-4.23V34h6.48v2a5.28,5.28,0,0,0,1,3.21,4.1,4.1,0,0,0,3.53,1.43,5.7,5.7,0,0,0,2.58-.48,3.47,3.47,0,0,0,1.43-1.36,5.16,5.16,0,0,0,.6-2.13c.06-.83.09-1.75.09-2.77A29,29,0,0,0,76.47,31,5.24,5.24,0,0,0,76,29.19a3.68,3.68,0,0,0-1.18-1.14,14.09,14.09,0,0,0-1.94-.95L68.2,25.19c-2.79-1.14-4.67-2.66-5.62-4.55a15.63,15.63,0,0,1-1.43-7.08,16.26,16.26,0,0,1,.7-4.83A10.73,10.73,0,0,1,64,4.79a9.43,9.43,0,0,1,3.4-2.64,11.27,11.27,0,0,1,4.92-1,10.81,10.81,0,0,1,4.42.89A11.44,11.44,0,0,1,80.15,4.4a9.85,9.85,0,0,1,2.93,7Z"/><path d="M108.89,14.57H102.4V13.11a6.9,6.9,0,0,0-1.05-3.84,3.87,3.87,0,0,0-3.52-1.62,4.2,4.2,0,0,0-2.17.5,4.29,4.29,0,0,0-1.33,1.28,5.38,5.38,0,0,0-.7,1.87,12,12,0,0,0-.19,2.19c0,.89,0,1.64.09,2.23A4.48,4.48,0,0,0,94,17.31a3.74,3.74,0,0,0,1.11,1.21,10.94,10.94,0,0,0,2,1l5,2a12.35,12.35,0,0,1,3.5,1.94,8.35,8.35,0,0,1,2.1,2.58,12.18,12.18,0,0,1,.95,3.46,34.16,34.16,0,0,1,.26,4.42,23.48,23.48,0,0,1-.58,5.31,11.15,11.15,0,0,1-1.84,4.16,9.16,9.16,0,0,1-3.5,2.8,12.45,12.45,0,0,1-5.27,1,11.58,11.58,0,0,1-4.39-.82,10.48,10.48,0,0,1-3.49-2.29,11.1,11.1,0,0,1-2.32-3.4,10.19,10.19,0,0,1-.86-4.23V34h6.48v2a5.28,5.28,0,0,0,1,3.21A4.1,4.1,0,0,0,97.7,40.7a5.63,5.63,0,0,0,2.57-.48,3.41,3.41,0,0,0,1.43-1.36,5.16,5.16,0,0,0,.61-2.13c.06-.83.09-1.75.09-2.77a26,26,0,0,0-.13-2.92,5.05,5.05,0,0,0-.5-1.85,3.68,3.68,0,0,0-1.18-1.14,14.69,14.69,0,0,0-1.94-.95L94,25.19q-4.2-1.71-5.62-4.55A15.5,15.5,0,0,1,87,13.56a16.59,16.59,0,0,1,.69-4.83,11,11,0,0,1,2.1-3.94,9.51,9.51,0,0,1,3.4-2.64,11.32,11.32,0,0,1,4.93-1,10.84,10.84,0,0,1,4.42.89A11.56,11.56,0,0,1,106,4.4a9.85,9.85,0,0,1,2.93,7Z"/><path d="M113.33,12.22a11.5,11.5,0,0,1,1-4.83,10.06,10.06,0,0,1,2.54-3.49,10.87,10.87,0,0,1,3.46-2,11.52,11.52,0,0,1,11.35,2,10.6,10.6,0,0,1,2.48,3.49,11.5,11.5,0,0,1,.95,4.83v23.9a11.42,11.42,0,0,1-.95,4.9,10.19,10.19,0,0,1-2.48,3.37,10.75,10.75,0,0,1-3.53,2.09,11.27,11.27,0,0,1-7.82,0,10.15,10.15,0,0,1-3.46-2.09A9.68,9.68,0,0,1,114.29,41a11.42,11.42,0,0,1-1-4.9Zm6.49,23.9a4.31,4.31,0,0,0,1.3,3.47,4.84,4.84,0,0,0,6.17,0,4.34,4.34,0,0,0,1.3-3.47V12.22a4.34,4.34,0,0,0-1.3-3.46,4.84,4.84,0,0,0-6.17,0,4.3,4.3,0,0,0-1.3,3.46Z"/><path d="M140.54,46.8V1.54h6.23l9.79,27.27h.13V1.54h6.48V46.8h-6.1l-9.92-27.2H147V46.8Z"/><path d="M323.75,45.44h-9.08V41.56h1.23v2.58h2.75V41.9h1.22v2.24h3.88Z"/><path d="M316.81,40.8a2.33,2.33,0,0,1-1-.19,2.15,2.15,0,0,1-.7-.51,2.12,2.12,0,0,1-.4-.7,2.16,2.16,0,0,1-.15-.78,2.12,2.12,0,0,1,.15-.78,2.17,2.17,0,0,1,.4-.71,2.12,2.12,0,0,1,.7-.5,2.33,2.33,0,0,1,1-.19h4.8a2.26,2.26,0,0,1,1,.19,2,2,0,0,1,.68.5,2.42,2.42,0,0,1,.42.71,2.33,2.33,0,0,1,.14.78,2.23,2.23,0,0,1-.56,1.48,2.06,2.06,0,0,1-.68.51,2.26,2.26,0,0,1-1,.19Zm4.8-1.3a.88.88,0,0,0,.69-.26,1,1,0,0,0,0-1.24.88.88,0,0,0-.69-.26h-4.8a.88.88,0,0,0-.69.26,1,1,0,0,0,0,1.24.88.88,0,0,0,.69.26Z"/><path d="M323.75,34.59H315.9v1.5h-1.23V31.78h1.23v1.51h7.85Z"/><path d="M314.26,30.09l-1.79-1.15V27.56l1.79,1.69Zm2.55,1.35a2.33,2.33,0,0,1-1-.19,2.15,2.15,0,0,1-.7-.51,2,2,0,0,1-.4-.7,2.12,2.12,0,0,1-.15-.78,2.5,2.5,0,0,1,.55-1.49,2.12,2.12,0,0,1,.7-.5,2.33,2.33,0,0,1,1-.19h4.8a2.26,2.26,0,0,1,1,.19,2,2,0,0,1,.68.5,2.42,2.42,0,0,1,.42.71,2.38,2.38,0,0,1,.14.78,2.33,2.33,0,0,1-.14.78,2.25,2.25,0,0,1-.42.7,2.06,2.06,0,0,1-.68.51,2.26,2.26,0,0,1-1,.19Zm4.8-1.3a.88.88,0,0,0,.69-.26,1,1,0,0,0,0-1.24.88.88,0,0,0-.69-.26h-4.8a.88.88,0,0,0-.69.26,1,1,0,0,0,0,1.24.88.88,0,0,0,.69.26Z"/><path d="M316.81,26a2.5,2.5,0,0,1-1-.19,2.15,2.15,0,0,1-.7-.51,2.12,2.12,0,0,1-.4-.7,2.13,2.13,0,0,1,0-1.57,1.95,1.95,0,0,1,1.1-1.2,2.33,2.33,0,0,1,1-.19h.46V23h-.46a.88.88,0,0,0-.69.26.91.91,0,0,0-.22.62.92.92,0,0,0,.22.62.88.88,0,0,0,.69.26h4.8a.88.88,0,0,0,.69-.26.93.93,0,0,0,.23-.62.91.91,0,0,0-.23-.62.88.88,0,0,0-.69-.26H319.9v1h-1.15V21.65h2.86a2.26,2.26,0,0,1,1,.19,2,2,0,0,1,.68.5,2.24,2.24,0,0,1,0,3,2.06,2.06,0,0,1-.68.51,2.41,2.41,0,0,1-1,.19Z"/><path d="M323.75,20.5h-9.08V18.41c0-1.53.89-2.3,2.67-2.3a3.44,3.44,0,0,1,1.36.25,1.93,1.93,0,0,1,.91.88l4.14-1.41v1.38l-3.88,1.21v.78h3.88Zm-7.85-1.3h2.83v-.74a1.39,1.39,0,0,0-.1-.55.76.76,0,0,0-.27-.32,1.34,1.34,0,0,0-.44-.14,5.35,5.35,0,0,0-.61,0,5,5,0,0,0-.6,0,1.25,1.25,0,0,0-.46.16,1,1,0,0,0-.35.91Z"/><path d="M323.75,15.65l-9.08-2V12.54l9.08-2v1.3l-1.95.38V14l1.95.38Zm-3.17-3.21-3.29.64v0l3.29.64Z"/><path d="M323.75,9.88h-9.08V6h1.23V8.58h2.75V6.33h1.22V8.58h3.88Z"/><path d="M316.81,5.24a2.5,2.5,0,0,1-1-.19,2.15,2.15,0,0,1-.7-.51,2.12,2.12,0,0,1-.4-.7,2.13,2.13,0,0,1,0-1.57,2.12,2.12,0,0,1,.4-.7,2.12,2.12,0,0,1,.7-.5,2.33,2.33,0,0,1,1-.19h4.8a2.26,2.26,0,0,1,1,.19,2,2,0,0,1,.68.5,2.37,2.37,0,0,1,.42.7,2.39,2.39,0,0,1,.14.79,2.38,2.38,0,0,1-.14.78,2.37,2.37,0,0,1-.42.7,2.06,2.06,0,0,1-.68.51,2.41,2.41,0,0,1-1,.19Zm4.8-1.3a.88.88,0,0,0,.69-.26.93.93,0,0,0,.23-.62.91.91,0,0,0-.23-.62.84.84,0,0,0-.69-.26h-4.8a.84.84,0,0,0-.69.26.91.91,0,0,0-.22.62.92.92,0,0,0,.22.62.88.88,0,0,0,.69.26Z"/><rect x="168.48" y="0.53" width="143.34" height="45.71"/><path class="cls-1" d="M171.53,46.05V.38h9.72a14.4,14.4,0,0,1,4.71.71,9.09,9.09,0,0,1,3.68,2.5,9.72,9.72,0,0,1,2.29,4.2,26.24,26.24,0,0,1,.64,6.51,32.93,32.93,0,0,1-.35,5.2,10.93,10.93,0,0,1-1.49,4A9.53,9.53,0,0,1,187.17,27a11.86,11.86,0,0,1-5.85,1.25H178V46.05ZM178,6.54V22.06h3.12a6.65,6.65,0,0,0,3.05-.57,3.64,3.64,0,0,0,1.59-1.61,5.81,5.81,0,0,0,.6-2.37c.06-.94.1-2,.1-3.14s0-2.09-.07-3a6.58,6.58,0,0,0-.57-2.53,3.63,3.63,0,0,0-1.52-1.67,6,6,0,0,0-2.93-.58Z"/><path class="cls-1" d="M218.38.38V35.79a10.42,10.42,0,0,1-3.06,7.51A10.84,10.84,0,0,1,212,45.61a10.18,10.18,0,0,1-4.07.83,9.93,9.93,0,0,1-4-.83,11,11,0,0,1-5.62-5.68,10.24,10.24,0,0,1-.83-4.14V.38h6.48V35.15A4.88,4.88,0,0,0,205,38.74a4.11,4.11,0,0,0,5.72,0,4.93,4.93,0,0,0,1.14-3.59V.38Z"/><path class="cls-1" d="M224.48,46.05V.38H231V39.51H243.8v6.54Z"/><path class="cls-1" d="M248.19,46.05V.38h6.48V46.05Z"/><path class="cls-1" d="M261,46.05V.38h9.6q5.6,0,8.49,3.08c1.93,2.06,2.89,5,2.89,8.73V33.55q0,6.41-3.08,9.46c-2.06,2-5,3-8.87,3Zm6.49-39.51V39.9h3c1.83,0,3.12-.46,3.88-1.38a6.67,6.67,0,0,0,1.15-4.33v-22A7,7,0,0,0,274.38,8c-.72-1-2-1.48-3.95-1.48Z"/><path class="cls-1" d="M287.66,11.16a11.82,11.82,0,0,1,.95-4.87,10.28,10.28,0,0,1,2.55-3.53,10.61,10.61,0,0,1,3.46-2,11.12,11.12,0,0,1,7.82,0A11.49,11.49,0,0,1,306,2.76a10.82,10.82,0,0,1,2.48,3.53,11.82,11.82,0,0,1,.95,4.87V35.28a11.77,11.77,0,0,1-.95,4.94,10.35,10.35,0,0,1-2.48,3.4,10.91,10.91,0,0,1-3.53,2.11,11.12,11.12,0,0,1-7.82,0,10.11,10.11,0,0,1-3.46-2.11,9.85,9.85,0,0,1-2.55-3.4,11.77,11.77,0,0,1-.95-4.94Zm6.48,24.12a4.35,4.35,0,0,0,1.31,3.49,4.76,4.76,0,0,0,6.16,0,4.35,4.35,0,0,0,1.31-3.49V11.16a4.38,4.38,0,0,0-1.31-3.5,4.8,4.8,0,0,0-6.16,0,4.38,4.38,0,0,0-1.31,3.5Z"/><line class="cls-2" x1="168.83" y1="24.07" x2="311.12" y2="24.07"/><line class="cls-3" x1="8.47" y1="23.38" x2="165.4" y2="23.38"/></g></g></svg>