<svg xmlns="http://www.w3.org/2000/svg" viewBox="0 0 161.8 79.08"><defs><style>.cls-1{fill:#fff;}</style></defs><title>logo</title><g id="Layer_2" data-name="Layer 2"><g id="Layer_1-2" data-name="Layer 1"><path class="cls-1" d="M0,6.61H14l11.63,27,11.7-27h14V61.84h-14l.08-15.92.85-11.15-.46-.08-7.26,19H20.83l-7.41-19-.39.08L14,45.92V61.84H0Z"/><path class="cls-1" d="M93.93,60.9c0,12.09-6.87,18.18-16.78,18.18a21.8,21.8,0,0,1-14.58-5.46l5.22-8.12a15.61,15.61,0,0,0,7.41,2.42c4.22,0,6.17-2.57,6.17-6.24a18,18,0,0,1-6.09.94C68.11,62.62,61,58.56,61,49V21.43H73.72V48.19c0,2.57,2,3.66,4.14,3.66A5.81,5.81,0,0,0,81,51V21.43h13Z"/><path class="cls-1" d="M122.09,62a18,18,0,0,1-4.45.63c-8.58.07-14.66-5.54-14.66-15.37V6.61h13.18V47.09c0,1.95,1,3.67,4,3.67a9.22,9.22,0,0,0,2-.23Z"/><path class="cls-1" d="M132.31,48.26c2.81,2.11,5.93,3.2,8.5,3,2.81-.24,3-3.59-.47-4.06-10.84-1.4-13.26-7.64-13.26-13.57s4.76-13,14.12-13a20.85,20.85,0,0,1,14,5.23l-6.4,8c-3.67-1.71-5.77-2-7.1-1.79a1.87,1.87,0,0,0-1.09,3,5.84,5.84,0,0,0,3,1.56c5.85,1.48,12.25,4.14,12.25,12.17,0,9.21-7.26,13.89-15,13.89a17.88,17.88,0,0,1-14.43-6.56Z"/><path class="cls-1" d="M157.67,0l-1,.75A21.31,21.31,0,0,1,144,5,25.86,25.86,0,0,1,130.3.71l-1-.64-4.35,6.45,1,.7a31.36,31.36,0,0,0,18.06,6,25.6,25.6,0,0,0,17-6.29l.81-.72Z"/></g></g></svg>