<svg height='100px' width='100px'  fill="#7ab1cc" xmlns="http://www.w3.org/2000/svg" xmlns:xlink="http://www.w3.org/1999/xlink" xml:space="preserve" version="1.1" style="shape-rendering:geometricPrecision;text-rendering:geometricPrecision;image-rendering:optimizeQuality;" viewBox="0 0 290 250" x="0px" y="0px" fill-rule="evenodd" clip-rule="evenodd"><defs><style type="text/css">
   
    .fil0 {fill:#7ab1cc;fill-rule:nonzero}
   
  </style></defs><g><path class="fil0" d="M221 205c-24,29 -59,45 -96,45 -69,0 -125,-56 -125,-125 0,-69 56,-125 125,-125 62,0 113,45 123,105l26 -33 16 12 -49 62 -62 -48 13 -16 37 29c-7,-51 -51,-91 -104,-91 -58,0 -105,47 -105,105 0,58 47,105 105,105 31,0 60,-14 80,-38l16 13z"></path></g></svg>