<svg height='100px' width='100px'  fill="#c67f7f" xmlns="http://www.w3.org/2000/svg" xmlns:xlink="http://www.w3.org/1999/xlink" version="1.1" x="0px" y="0px" viewBox="0 0 1024 1024" style="enable-background:new 0 0 1024 1024;" xml:space="preserve"><g><g><g><path d="M107.4,363.6c19.2,0,38.3,0,57.5,0c45.6,0,91.2,0,136.9,0c54.2,0,108.4,0,162.6,0c45,0,89.9,0,134.9,0     c20.7,0,41.5-0.5,62.2,0.1c9.3,0.3,18.5,1.1,27.7,2.3c-2.7-0.4-5.3-0.7-8-1.1c22.8,3.2,45,9.3,66.2,18.1c-2.4-1-4.8-2-7.2-3     c12.2,5.2,24,11.2,35.3,18.1c5.6,3.4,11.1,7.1,16.4,10.9c2.4,1.7,10.8,8.6,2.3,1.6c2.5,2.1,5.1,4.1,7.6,6.2     c10,8.5,19.4,17.7,28,27.5c2,2.3,4,4.6,5.9,7c1,1.2,1.9,2.4,2.9,3.6c2.8,3.5-2.4-3-2.3-3c0.6,0.4,1.1,1.5,1.6,2.1     c3.9,5.3,7.7,10.7,11.2,16.2c8.1,12.6,15.1,25.9,20.9,39.7c-1-2.4-2-4.8-3-7.2c8.9,21.2,15,43.4,18.1,66.2     c-0.4-2.7-0.7-5.3-1.1-8c3.2,24,3.2,48.2,0,72.2c0.4-2.7,0.7-5.3,1.1-8c-3.2,22.8-9.3,45-18.1,66.2c1-2.4,2-4.8,3-7.2     c-5.2,12.2-11.2,24-18.1,35.3c-3.4,5.6-7.1,11.1-10.9,16.4c-1.7,2.4-8.6,10.8-1.6,2.3c-2.1,2.5-4.1,5.1-6.2,7.6     c-8.5,10-17.7,19.4-27.5,28c-2.3,2-4.6,4-7,5.9c-1.2,1-2.4,1.9-3.6,2.9c-3.5,2.8,3-2.4,3-2.3c-0.4,0.6-1.5,1.1-2.1,1.6     c-5.3,3.9-10.7,7.7-16.2,11.2c-12.6,8.1-25.9,15.1-39.7,20.9c2.4-1,4.8-2,7.2-3c-21.2,8.9-43.4,15-66.2,18.1     c2.7-0.4,5.3-0.7,8-1.1c-19.7,2.6-39.3,2.5-59.1,2.5c-27.3,0-54.5,0-81.8,0c-35.4,0-70.8,0-106.2,0c-31.7,0-63.4,0-95.1,0     c-15.6,0-31.2-0.3-46.7,0c-0.2,0-0.4,0-0.7,0c-15.7,0-30.7,13.8-30,30c0.7,16.3,13.2,30,30,30c35.7,0,71.4,0,107,0     c60.8,0,121.7,0,182.5,0c46.5,0,93.2,2.3,138.7-9.6c45.3-11.8,87-34.9,121.9-66c35.1-31.4,61.4-71.3,78.3-115.1     c33.7-87.2,21.1-190.9-32-267.7c-26.6-38.4-61.6-71-102.8-93.2c-42.5-22.9-90.4-35.3-138.7-35.6c-25.8-0.1-51.5,0-77.3,0     c-57.5,0-115,0-172.5,0c-61.4,0-122.8,0-184.2,0c-36,0-71.9,0-107.9,0c-1.7,0-3.5,0-5.2,0c-15.7,0-30.7,13.8-30,30     C78.1,349.9,90.6,363.6,107.4,363.6L107.4,363.6z"></path></g></g><g><g><path d="M299.1,482.9c-19.1-19.1-38.3-38.3-57.4-57.4c-30.7-30.7-61.3-61.3-92-92c-7-7-14-14-21.1-21.1     c0,14.1,0,28.3,0,42.4c19.1-19.1,38.3-38.3,57.4-57.4c30.7-30.7,61.3-61.3,92-92c7-7,14-14,21.1-21.1c11.1-11.1,11.9-31.5,0-42.4     c-12-11-30.6-11.9-42.4,0c-19.1,19.1-38.3,38.3-57.4,57.4c-30.7,30.7-61.3,61.3-92,92c-7,7-14,14-21.1,21.1     c-11.5,11.5-11.5,30.9,0,42.4c19.1,19.1,38.3,38.3,57.4,57.4c30.7,30.7,61.3,61.3,92,92c7,7,14,14,21.1,21.1     c11.1,11.1,31.5,11.9,42.4,0C310.1,513.4,310.9,494.8,299.1,482.9L299.1,482.9z"></path></g></g></g></svg>