<svg height='100px' width='100px'  fill="#9ec18e" xmlns="http://www.w3.org/2000/svg" xmlns:xlink="http://www.w3.org/1999/xlink" xml:space="preserve" version="1.1" style="shape-rendering:geometricPrecision;text-rendering:geometricPrecision;image-rendering:optimizeQuality;" viewBox="0 0 381 381" x="0px" y="0px" fill-rule="evenodd" clip-rule="evenodd"><defs><style type="text/css">
   
    .fil0 {fill:#9ec18e;fill-rule:nonzero}
   
  </style></defs><g><path class="fil0" d="M56 0l228 0c10,0 20,4 27,11l59 59c7,8 11,17 11,27l0 228c0,31 -25,56 -56,56l-269 0c-31,0 -56,-25 -56,-56l0 -269c0,-31 25,-56 56,-56zm39 23l0 50c0,9 7,16 15,16l126 0c9,0 15,-7 15,-16l0 -50 -156 0zm179 0l0 50c0,21 -17,38 -38,38l-126 0c-21,0 -38,-17 -38,-38l0 -50 -16 0c-18,0 -33,15 -33,33l0 269c0,18 15,33 33,33l33 0 0 -64c0,-21 18,-38 39,-38l125 0c21,0 39,17 39,38l0 64 33 0c18,0 33,-15 33,-33l0 -228c0,-4 -1,-7 -4,-11l-59 -59c-4,-3 -7,-4 -11,-4l-10 0zm-162 335l157 0 0 -64c0,-8 -7,-15 -16,-15l-125 0c-9,0 -16,7 -16,15l0 64z"></path></g></svg>