<svg height='100px' width='100px'  fill="#7ab1cc" xmlns="http://www.w3.org/2000/svg" xmlns:xlink="http://www.w3.org/1999/xlink" xml:space="preserve" version="1.1" style="shape-rendering:geometricPrecision;text-rendering:geometricPrecision;image-rendering:optimizeQuality;" viewBox="0 0 298 210" x="0px" y="0px" fill-rule="evenodd" clip-rule="evenodd"><defs><style type="text/css">
   
    .fil0 {fill:#7ab1cc;fill-rule:nonzero}
   
  </style></defs><g><path class="fil0" d="M49 10c0,-6 4,-10 10,-10 5,0 10,4 10,10l0 165 31 -31c4,-4 11,-4 15,0 3,4 3,10 0,14l-49 48c-4,4 -10,5 -14,1l-49 -49c-4,-4 -4,-10 0,-14 4,-4 10,-4 14,0l32 31 0 -165z"></path><path class="fil0" d="M149 50c-6,0 -10,-4 -10,-10 0,-5 4,-10 10,-10l139 0c6,0 10,5 10,10 0,6 -4,10 -10,10l-139 0z"></path><path class="fil0" d="M149 93c-6,0 -10,-4 -10,-10 0,-5 4,-10 10,-10l109 0c5,0 10,5 10,10 0,6 -5,10 -10,10l-109 0z"></path><path class="fil0" d="M149 136c-6,0 -10,-4 -10,-10 0,-5 4,-10 10,-10l78 0c6,0 10,5 10,10 0,6 -4,10 -10,10l-78 0z"></path><path class="fil0" d="M149 179c-6,0 -10,-4 -10,-10 0,-5 4,-10 10,-10l48 0c5,0 10,5 10,10 0,6 -5,10 -10,10l-48 0z"></path></g></svg>