<svg height='100px' width='100px'  fill="#7ab1cc" xmlns="http://www.w3.org/2000/svg" viewBox="0 0 100 100" x="0px" y="0px"><title>education-27</title><g data-name="Layer 2"><path d="M22.71,84.42A41.3,41.3,0,0,0,44,90.81a25,25,0,0,0,11.1-2.37C64,84,70.8,72.9,73.66,63.82,76,56.44,76,50.09,73.77,46c-6.39-11.69-14.85-8.35-21-5.92-2.9,1.14-5.63,2.22-7.29,1.42-.91-.44-1.6-1.49-2.11-3.21C42.17,34.33,44.6,33,49,31c3.15-1.46,6.42-3,7.39-6.25.75-2.55-.1-5.71-2.59-9.66-3.41-5.38-12.08-7.32-21.09-4.71A35,35,0,0,0,14.11,24C8.36,32.15,5.44,42.71,5.44,55.37,5.44,67,11.73,77.62,22.71,84.42Zm10.7-71.67a25.8,25.8,0,0,1,7.1-1c5,0,9.27,1.67,11.17,4.68C53.75,19.65,54.52,22.21,54,24c-.65,2.2-3.27,3.41-6,4.69C44,30.52,39.1,32.78,40.94,39c.72,2.43,1.84,4,3.42,4.75,2.64,1.28,5.87,0,9.3-1.34,6.19-2.44,12.59-5,17.91,4.79,1.9,3.48,1.8,9.29-.29,15.92C68.58,71.65,62.18,82.13,54,86.2,46.24,90,33.92,88.44,24,82.3,13.8,76,7.94,66.15,7.94,55.37,7.94,38.33,14.63,18.19,33.41,12.75Z"></path><path d="M26.24,34.55A6.56,6.56,0,1,0,19.69,28,6.56,6.56,0,0,0,26.24,34.55Zm0-10.61a4.06,4.06,0,1,1-4,4.06A4.06,4.06,0,0,1,26.24,23.94Z"></path><path d="M19.43,50.45a6.55,6.55,0,1,0-6.55-6.55A6.56,6.56,0,0,0,19.43,50.45Zm0-10.6a4.05,4.05,0,1,1-4,4A4,4,0,0,1,19.43,39.85Z"></path><path d="M27.49,61.15a6.56,6.56,0,1,0-6.55,6.56A6.56,6.56,0,0,0,27.49,61.15Zm-10.61,0a4.06,4.06,0,1,1,4.06,4.06A4.06,4.06,0,0,1,16.88,61.15Z"></path><path d="M27.64,75.7a6.55,6.55,0,1,0,6.55-6.55A6.55,6.55,0,0,0,27.64,75.7Zm6.55-4a4,4,0,1,1-4,4A4.06,4.06,0,0,1,34.19,71.65Z"></path><path d="M52.74,78.31a6.55,6.55,0,1,0-6.55-6.55A6.56,6.56,0,0,0,52.74,78.31Zm0-10.6a4,4,0,1,1-4.05,4.05A4.05,4.05,0,0,1,52.74,67.71Z"></path><path d="M60.29,61.05a8.8,8.8,0,1,0-8.8-8.8A8.81,8.81,0,0,0,60.29,61.05Zm0-15.1a6.3,6.3,0,1,1-6.3,6.3A6.31,6.31,0,0,1,60.29,46Z"></path><path d="M94,20.92c-1-4.57-3.36-8.09-6.61-9.92a1.26,1.26,0,0,0-1.4.12,1.24,1.24,0,0,0-.4,1.35c.61,1.92-1.27,4.41-3.26,7-3,4-6.74,9-2.8,14.21L82.2,86.37a1.24,1.24,0,0,0,1.24,1.18h5.3A1.24,1.24,0,0,0,90,86.37l2.64-52.71C94.52,30.7,95.09,25.67,94,20.92ZM84.35,21c1.59-2.1,3.21-4.25,3.72-6.43a13.6,13.6,0,0,1,3.52,6.86c.86,3.86.48,8.16-.88,10.59h-9.3C79,28.63,81,25.43,84.35,21Zm3.2,64H84.63l-2.52-50.5h8Z"></path></g></svg>