<svg height='100px' width='100px'  fill="#7ab1cc" xmlns="http://www.w3.org/2000/svg" viewBox="0 0 64 64" x="0px" y="0px"><g><path d="M26,46h7v7a1,1,0,0,0,1,1h4a1,1,0,0,0,1-1V47h6a1,1,0,0,0,1-1V42a1,1,0,0,0-1-1H39V39.044a10,10,0,0,0,7-9.528V24.771A3.849,3.849,0,0,0,42,21a4.2,4.2,0,0,0-3.008,1.266A4.068,4.068,0,0,0,36,21a4.2,4.2,0,0,0-3.008,1.266A4.068,4.068,0,0,0,30,21a3.852,3.852,0,0,0-4,3.562v4.922a10.033,10.033,0,0,0,7,9.55V40H26a1,1,0,0,0-1,1v4A1,1,0,0,0,26,46Zm11,6H35V39.5h2Zm7-9v2H39V43ZM40,24.771v-.209a2.037,2.037,0,0,1,4,.209V25H40Zm-6,0v-.209a2.037,2.037,0,0,1,4,.209V25H34Zm-6-.209A1.872,1.872,0,0,1,30,23a1.854,1.854,0,0,1,2,1.771V25H28Zm0,4.922V27H44v2.516a8,8,0,0,1-16-.032ZM27,42h6v2H27Z"></path><path d="M61,13H56V6.92a1,1,0,0,0-1-1H50V3a1,1,0,0,0-1-1H3A1,1,0,0,0,2,3V52a1,1,0,0,0,1,1h7v8a1,1,0,0,0,1,1H61a1,1,0,0,0,1-1V14A1,1,0,0,0,61,13ZM10,14V51H4V4H48V6.92a1,1,0,0,0,1,1h5V13H11A1,1,0,0,0,10,14ZM60,60H12V15H60Z"></path></g></svg>