<svg height='100px' width='100px'  fill="#7ab1cc" xmlns="http://www.w3.org/2000/svg" viewBox="0 0 64 64" x="0px" y="0px"><title>Page-performance-speed-website-SEO</title><g><path d="M32,32A28.03,28.03,0,0,0,4.025,59H2v2H62V59H59.975A28.03,28.03,0,0,0,32,32Zm0,12c.173,0,.348.016.521.022l-5.176,5.1a1,1,0,0,0-.267.962l1.415,5.477a1,1,0,0,0,.967.75.988.988,0,0,0,.251-.032l5.477-1.414a1,1,0,0,0,.713-.7l2.466-8.837A16.028,16.028,0,0,1,47.961,59H16.051A16.007,16.007,0,0,1,32,44Zm6.907-.613,1.166-4.179a1,1,0,0,0-1.665-.981L34.4,42.178c-.465-.064-.929-.11-1.4-.136V34.025a25.827,25.827,0,0,1,11.121,2.983l-4.005,6.936Q39.525,43.644,38.907,43.387Zm-1.768-1.1L34.13,53.068l-3.951,1.021-1.02-3.951ZM31,42.051a17.843,17.843,0,0,0-7.111,1.9l-4.01-6.945A25.827,25.827,0,0,1,31,34.025Zm17.057,9.832,6.935-4A25.827,25.827,0,0,1,57.975,59H49.961A17.967,17.967,0,0,0,48.057,51.883Zm5.93-5.734-6.939,4.007a18.039,18.039,0,0,0-5.195-5.219l4-6.924A26.194,26.194,0,0,1,53.987,46.149ZM18.149,38.013l4,6.937a18.144,18.144,0,0,0-5.2,5.2l-6.937-4.005A26.194,26.194,0,0,1,18.149,38.013ZM9.008,47.879l6.945,4.01A17.843,17.843,0,0,0,14.051,59H6.025A25.827,25.827,0,0,1,9.008,47.879Z"></path><rect x="31" y="50" width="2" height="2" transform="translate(-28.185 52.664) rotate(-59.478)"></rect><rect x="32" y="19" width="21" height="2"></rect><rect x="28" y="23" width="21" height="2"></rect><rect x="28" y="27" width="18" height="2"></rect><rect x="15" y="2" width="26" height="2"></rect><rect x="43" y="2" width="2" height="2"></rect><path d="M8,16H56V42h2V10a4,4,0,0,0-4-4H10a4,4,0,0,0-4,4V42H8Zm2-8H54a2,2,0,0,1,2,2v4H8V10A2,2,0,0,1,10,8Z"></path><rect x="10" y="10" width="2" height="2"></rect><rect x="14" y="10" width="2" height="2"></rect><rect x="18" y="10" width="2" height="2"></rect><path d="M12,19a1,1,0,0,0-1,1v8a1,1,0,0,0,1,1H24a1,1,0,0,0,1-1V20a1,1,0,0,0-1-1Zm11,8H13V21H23Z"></path><rect x="28" y="19" width="2" height="2"></rect></g></svg>