<svg height='100px' width='100px'  fill="#7ab1cc" xmlns="http://www.w3.org/2000/svg" xmlns:xlink="http://www.w3.org/1999/xlink" version="1.1" x="0px" y="0px" viewBox="0 0 100 100" enable-background="new 0 0 100 100" xml:space="preserve"><g><path d="M85.141,32.807l0.251,0.064c-0.115-0.044-0.342-0.126-0.631-0.166c-0.997-0.129-2.046-0.06-3.035,0.202   c-3.174,0.847-4.434,3.382-5.451,5.421l-0.129,0.268c-0.005,0.007-1.111,2.216-1.111,2.216l-0.766,1.526   c-0.439,0.872-0.85,1.759-1.261,2.635c-0.831-1.098-1.789-2.372-2.838-3.664c-3.789-4.683-6.451-7.59-13.156-8.355   c-1.139-0.132-2.387-0.221-3.673-0.285c0.42-0.187,0.85-0.342,1.247-0.569c4.278-2.438,6.936-6.965,6.936-11.813   c0-7.515-6.112-13.632-13.624-13.632c-7.516,0-13.633,6.117-13.633,13.632c0,5.307,3.133,10.162,7.977,12.368   c0.129,0.06,0.251,0.096,0.379,0.15c-1.384,0.105-2.732,0.238-3.98,0.409c-4.138,0.57-8.113,1.434-11.214,5.74   c-4.108,6.39-9.052,15.773-11.637,20.806c-1.944,3.825-1.662,6.062,1.172,9.224c0,0,1.265,1.428,2.988,3.361L7.838,87.876   l0.138-0.151c-0.949,0.939-1.232,2.348-0.715,3.589c0.506,1.233,1.705,2.033,3.043,2.033h75.995c1.338,0,2.528-0.798,3.042-2.033   c0.507-1.237,0.225-2.642-0.713-3.589l0.133,0.151l-13.359-17.16c-1.769-2.276-2.677-3.071-5.85-3.071h-3.68   c-0.205-2.519-0.385-5.008-0.54-7.469c1.017,1.047,1.892,1.936,2.485,2.524l0.461,0.474c0.927,0.96,1.98,2.05,3.54,2.651   c2.501,0.975,5.378,0.599,7.513-0.985c1.743-1.298,2.702-2.536,7.359-12.307l2.2-4.619c0.347-0.722,0.701-1.498,1.092-2.368   c0.993-2.201,2.833-6.295,0.015-9.864C88.793,34.15,87.071,33.127,85.141,32.807z M38.551,20.285c0-5.155,4.195-9.351,9.349-9.351   c5.152,0,9.34,4.195,9.34,9.351c0,3.317-1.828,6.414-4.766,8.09c-0.49,0.278-0.991,0.505-1.518,0.691   c-1.084,0.379-2.081,0.562-3.057,0.562c-0.632,0-1.27-0.066-1.894-0.19c-0.617-0.123-1.26-0.346-1.966-0.671   C40.7,27.246,38.551,23.918,38.551,20.285z M69.552,70.937c1.849,0,1.898,0.067,3.25,1.803l13.362,17.159l0.056,0.079l0.072,0.072   v0.003H10.304V90.05c0,0,0,0.004-0.007,0.004l0.045-0.044c0.058-0.063,0.098-0.109,0.098-0.109l11.733-15.05   c3.364,3.783,7.113,8.003,7.113,8.003c0.852,0.926,1.814,1.591,2.896,2.011c1.937,0.762,4.058,0.717,5.969-0.116   c1.911-0.84,3.378-2.369,4.131-4.304c1.01-2.587,0.578-5.475-1.158-7.729c-0.477-0.548-1.004-1.15-1.545-1.779H69.552z    M86.086,43.787c-0.38,0.84-0.732,1.592-1.06,2.297c-0.007,0.004-2.193,4.601-2.193,4.601c-4.379,9.173-5.155,10.046-6.055,10.718   c-0.958,0.711-2.266,0.878-3.411,0.431c-0.682-0.263-1.3-0.898-2.008-1.635l-0.515-0.525c-1.266-1.261-3.783-3.81-6.433-6.696   l-4.025-4.387l0.315,5.948c0.224,4.34,0.521,8.66,0.881,13.106H47.409h-10.66c-0.34-0.4-0.659-0.782-0.989-1.165   c-0.354-0.411-0.689-0.806-1.017-1.19l-0.127-13.497l-7.155,11.526l0.933,1.102c0.058,0.069,5.942,7.042,9.431,11.014   c0.72,0.948,0.934,2.275,0.469,3.452c-0.341,0.871-0.998,1.562-1.86,1.936c-0.861,0.379-1.816,0.398-2.693,0.057   c-0.469-0.183-0.899-0.48-1.273-0.888c0.038,0.041-12.314-13.861-12.314-13.861c-1.635-1.825-1.678-2.199-0.545-4.423   c2.538-4.956,7.409-14.199,11.359-20.343c1.892-2.619,4.085-3.334,8.261-3.905c1.802-0.249,3.809-0.396,5.854-0.496l1.145,4.249   l-2.566,19.812l4.42,4.277l4.149-4.526l-3.391-19.61l1.53-4.29c2.182,0.036,4.316,0.125,6.162,0.336   c5.09,0.58,6.841,2.502,10.315,6.795c1.123,1.391,2.19,2.815,3.056,3.963c0.823,1.103,1.479,1.976,1.942,2.491l2.142,2.416   c-0.008,0.02,1.376-2.896,1.376-2.896l1.218-2.549c0.488-1.049,0.997-2.137,1.523-3.18l0.76-1.517l1.111-2.231l0.137-0.27   c0.932-1.867,1.474-2.858,2.715-3.188c0.442-0.117,0.907-0.146,1.349-0.091c0.11,0.033,0.183,0.067,0.335,0.088   c0.801,0.136,1.585,0.595,2.131,1.291C87.663,39.63,87.251,41.186,86.086,43.787z"></path></g></svg>