<svg xmlns="http://www.w3.org/2000/svg" viewBox="0 0 261.01 53.13"><title>Asset 1</title><g id="f2e1966c-3a38-4dcb-a8be-3576661cf771" data-name="Layer 2"><g id="bb79a036-0947-4f40-ba67-ad253b8d4649" data-name="Слой 1"><path d="M0,4.44H9.38l7.81,18.13L25.05,4.44h9.38V41.55H25l.05-10.7.58-7.49-.32-.05L20.44,36H14L9,23.31l-.26.05.63,7.49v10.7H0Z" style="fill:#f07a71"/><path d="M63.11,40.92c0,8.12-4.62,12.21-11.27,12.21A14.59,14.59,0,0,1,42,49.46L45.55,44a10.55,10.55,0,0,0,5,1.62c2.83,0,4.14-1.73,4.14-4.19a12,12,0,0,1-4.09.63C45.76,42.07,41,39.35,41,33V14.4h8.54v18a2.48,2.48,0,0,0,2.78,2.47,3.91,3.91,0,0,0,2.1-.58V14.4h8.7Z" style="fill:#f07a71"/><path d="M82,41.65a12.17,12.17,0,0,1-3,.42c-5.76,0-9.85-3.72-9.85-10.32V4.44h8.86v27.2c0,1.31.68,2.46,2.67,2.46A6.2,6.2,0,0,0,82,34Z" style="fill:#f07a71"/><path d="M88.9,32.43a8.72,8.72,0,0,0,5.71,2c1.89-.16,2-2.41-.32-2.73-7.28-.94-8.9-5.13-8.9-9.12s3.19-8.7,9.48-8.7a14,14,0,0,1,9.38,3.52L100,22.73c-2.47-1.15-3.88-1.36-4.77-1.2a1.26,1.26,0,0,0-.74,2,4,4,0,0,0,2,1.05c3.93,1,8.22,2.77,8.22,8.17,0,6.19-4.87,9.33-10.06,9.33A12,12,0,0,1,85,37.67Z" style="fill:#f07a71"/><path d="M105.93,0l-.7.51a14.28,14.28,0,0,1-8.48,2.83A17.29,17.29,0,0,1,87.55.47L86.87.05,83.94,4.38l.66.47a21.11,21.11,0,0,0,12.14,4,17.21,17.21,0,0,0,11.43-4.22l.54-.48Z" style="fill:#f07a71"/><path d="M110,36.51a5.14,5.14,0,0,1,5.14-5.15,5,5,0,0,1,3.67,1.51,4.9,4.9,0,0,1,1.53,3.64,5.06,5.06,0,0,1-1.53,3.71,5,5,0,0,1-3.67,1.54,4.91,4.91,0,0,1-3.64-1.54A5.11,5.11,0,0,1,110,36.51Z" style="fill:#f07a71"/><path d="M123.11,37.6l3.9-5.2a8.11,8.11,0,0,0,5.67,2,1.41,1.41,0,0,0,1.24-.67,1.08,1.08,0,0,0,0-1.25,2,2,0,0,0-1.51-.78q-8.84-1.14-8.84-9a8.45,8.45,0,0,1,2.53-5.95A9,9,0,0,1,132.94,14a14.12,14.12,0,0,1,9.3,3.48L138,22.78q-3.16-1.46-4.73-1.2a1.23,1.23,0,0,0-.89.76,1.08,1.08,0,0,0,.16,1.22,4.25,4.25,0,0,0,2,1,15.33,15.33,0,0,1,5.93,2.73,6.48,6.48,0,0,1,2.23,5.38,8.41,8.41,0,0,1-2.91,6.81A10.63,10.63,0,0,1,132.73,42,12.09,12.09,0,0,1,123.11,37.6Z" style="fill:#f07a71"/><path d="M159.77,32.35l7.59,1.71a10.6,10.6,0,0,1-4.29,6,11.46,11.46,0,0,1-6.21,1.9,12.7,12.7,0,0,1-7.8-2.4q-3.23-2.39-3.23-7.22V23.87a8.75,8.75,0,0,1,3.28-7.28,12.09,12.09,0,0,1,7.75-2.6,12.43,12.43,0,0,1,3.87.6,9.16,9.16,0,0,1,3.59,2.34,10.11,10.11,0,0,1,2.52,4.44l-7.38,2.29a2.55,2.55,0,0,0-2.71-2.29,2.39,2.39,0,0,0-1.64.63,2.13,2.13,0,0,0-.7,1.66v8.63a2.15,2.15,0,0,0,.7,1.67,2.56,2.56,0,0,0,1.75.62A2.81,2.81,0,0,0,159.77,32.35Z" style="fill:#f07a71"/><path d="M179.27,4.63v9.88A12,12,0,0,1,182.8,14a9.68,9.68,0,0,1,7,2.63,9.65,9.65,0,0,1,2.73,7.3V41.45h-8.74V23.87c0-1.46-.87-2.18-2.6-2.18a3.69,3.69,0,0,0-1.92.46v19.3h-8.74V4.63Z" style="fill:#f07a71"/><path d="M196.58,32.45V23.92a8.82,8.82,0,0,1,3.25-7.28,12.61,12.61,0,0,1,15.47,0,8.76,8.76,0,0,1,3.28,7.28v8.53a8.31,8.31,0,0,1-3.28,7A12.26,12.26,0,0,1,207.56,42a12.63,12.63,0,0,1-7.73-2.55A8.32,8.32,0,0,1,196.58,32.45Zm12.61-10.11a2.71,2.71,0,0,0-3.27,0,1.67,1.67,0,0,0-.76,1.43v8.78a1.8,1.8,0,0,0,.73,1.46,2.72,2.72,0,0,0,3.33,0,1.8,1.8,0,0,0,.73-1.46V23.77A1.69,1.69,0,0,0,209.19,22.34Z" style="fill:#f07a71"/><path d="M222.22,32.45V23.92a8.8,8.8,0,0,1,3.25-7.28,12.61,12.61,0,0,1,15.47,0,8.79,8.79,0,0,1,3.28,7.28v8.53a8.34,8.34,0,0,1-3.28,7A12.29,12.29,0,0,1,233.19,42a12.62,12.62,0,0,1-7.72-2.55A8.29,8.29,0,0,1,222.22,32.45Zm12.61-10.11a2.72,2.72,0,0,0-3.28,0,1.68,1.68,0,0,0-.75,1.43v8.78a1.77,1.77,0,0,0,.73,1.46,2.7,2.7,0,0,0,3.32,0,1.77,1.77,0,0,0,.73-1.46V23.77A1.68,1.68,0,0,0,234.83,22.34Z" style="fill:#f07a71"/><path d="M261,33.91v7.64a12.29,12.29,0,0,1-3,.42A9.38,9.38,0,0,1,251,39.29a10.29,10.29,0,0,1-2.7-7.57V4.63h8.79v27c0,1.63.88,2.44,2.65,2.44A6.57,6.57,0,0,0,261,33.91Z" style="fill:#f07a71"/></g></g></svg>