<?xml version="1.0" encoding="utf-8"?>
<!-- Generator: Adobe Illustrator 23.0.3, SVG Export Plug-In . SVG Version: 6.00 Build 0)  -->
<svg version="1.1" id="be4aaae8-bd20-4c80-b1fe-188c350d8a2b"
	 xmlns="http://www.w3.org/2000/svg" xmlns:xlink="http://www.w3.org/1999/xlink" x="0px" y="0px" viewBox="0 0 161.8 163.4"
	 style="enable-background:new 0 0 161.8 163.4;" xml:space="preserve">
<style type="text/css">
	.st0{fill:#71D88F;}
	.st1{enable-background:new    ;}
	.st2{fill:#FFFFFF;}
</style>
<title>Myls_logo_with_tagline</title>
<rect x="0.1" y="104" class="st0" width="159.5" height="59.5"/>
<polygon class="st0" points="146.9,82.5 146.9,108.7 129,108.7 "/>
<g class="st1">
	<path class="st2" d="M8.2,138.4v-11.3h2.9l2.4,5.5l2.4-5.5h2.9v11.3h-2.9l0-3.3l0.2-2.3l-0.1,0l-1.5,3.9h-2l-1.5-3.9l-0.1,0
		l0.2,2.3v3.3H8.2z"/>
	<path class="st2" d="M23.1,133.2c0.4,0,0.7,0,1,0.1c0-0.8-0.3-1.2-1.1-1.2c-0.5,0-1,0.2-1.4,0.6l-1.2-1.3c0.7-1,1.8-1.5,3.1-1.5
		c0.9,0,1.7,0.3,2.3,0.8c0.6,0.5,1,1.2,1,2.2v5.1c-1,0.4-2.1,0.6-3.2,0.6c-1.2,0-2-0.2-2.6-0.7c-0.6-0.5-0.9-1.2-0.9-2
		c0-0.7,0.3-1.4,0.8-1.8C21.3,133.5,22.1,133.2,23.1,133.2z M24,136.5v-1.4c-0.4-0.1-0.7-0.1-1,0s-0.5,0.4-0.5,0.7
		c0,0.4,0.2,0.6,0.5,0.7C23.4,136.6,23.7,136.6,24,136.5z"/>
</g>
<g class="st1">
	<path class="st2" d="M30.7,132.7l1.8-2.6h3l-3,4l3,4.3h-3.2l-1.6-2.7v2.7h-2.6v-11.3h2.6V132.7z"/>
</g>
<g class="st1">
	<path class="st2" d="M38.1,135.2v0.3c0,0.3,0.1,0.5,0.3,0.7c0.2,0.2,0.5,0.3,0.8,0.3c0.5,0,1-0.2,1.3-0.6l1.5,1.2
		c-0.7,1-1.7,1.4-3,1.4c-0.9,0-1.7-0.3-2.4-0.8s-1-1.3-1-2.2v-2.6c0-1,0.3-1.7,1-2.2c0.7-0.5,1.5-0.8,2.4-0.8c0.9,0,1.7,0.3,2.3,0.8
		s0.9,1.3,0.9,2.2v2.2H38.1z M39.9,133.4v-0.6c0-0.2-0.1-0.4-0.3-0.5c-0.2-0.1-0.4-0.2-0.6-0.2c-0.2,0-0.5,0.1-0.6,0.2
		c-0.2,0.1-0.3,0.3-0.3,0.6v0.5H39.9z"/>
	<path class="st2" d="M53.1,130.1v8.1c0,1.2-0.3,2.1-0.9,2.8c-0.6,0.6-1.5,1-2.5,1c-1.1,0-2.1-0.4-3-1.1l1.1-1.7
		c0.6,0.3,1.1,0.5,1.5,0.5c0.4,0,0.7-0.1,0.9-0.3c0.2-0.2,0.3-0.5,0.3-0.9c-0.3,0.1-0.7,0.2-1.2,0.2c-0.8,0-1.5-0.2-2.1-0.7
		c-0.6-0.5-0.9-1.2-0.9-2.1v-5.7h2.6v5.5c0,0.2,0.1,0.4,0.2,0.6c0.2,0.1,0.4,0.2,0.6,0.2c0.2,0,0.5-0.1,0.6-0.2v-6.1H53.1z"/>
	<path class="st2" d="M54.4,135.6V133c0-1,0.3-1.7,1-2.2c0.7-0.5,1.5-0.8,2.4-0.8c0.9,0,1.7,0.3,2.4,0.8c0.7,0.5,1,1.3,1,2.2v2.6
		c0,0.9-0.3,1.6-1,2.2c-0.7,0.5-1.5,0.8-2.4,0.8c-0.9,0-1.7-0.3-2.4-0.8C54.7,137.3,54.4,136.5,54.4,135.6z M58.3,132.5
		c-0.2-0.1-0.3-0.2-0.5-0.2c-0.2,0-0.3,0.1-0.5,0.2c-0.2,0.1-0.2,0.3-0.2,0.4v2.7c0,0.2,0.1,0.3,0.2,0.4s0.3,0.2,0.5,0.2
		s0.4-0.1,0.5-0.2c0.1-0.1,0.2-0.3,0.2-0.4V133C58.5,132.8,58.4,132.6,58.3,132.5z"/>
	<path class="st2" d="M69.2,130.1v7.8c-0.9,0.4-1.9,0.7-3,0.7c-1.1,0-2-0.2-2.7-0.7c-0.7-0.5-1.1-1.3-1.1-2.4v-5.3h2.7v5.3
		c0,0.3,0.1,0.4,0.2,0.6c0.2,0.1,0.4,0.2,0.6,0.2c0.2,0,0.4,0,0.5-0.1v-6H69.2z"/>
</g>
<g class="st1">
	<path class="st2" d="M74,130c0.4,0,0.8,0.1,1.4,0.2v2.4c-0.4-0.2-0.9-0.2-1.3-0.1c-0.5,0.2-0.7,0.5-0.7,0.9v5.1h-2.7v-5.2
		c0-1.1,0.3-1.9,0.9-2.4C72.2,130.2,73,130,74,130z"/>
</g>
<g class="st1">
	<path class="st2" d="M82.8,136.1v2.4c-0.3,0.1-0.6,0.1-0.9,0.1c-0.9,0-1.6-0.3-2.2-0.8c-0.6-0.6-0.8-1.3-0.8-2.3v-8.3h2.7v8.3
		c0,0.5,0.3,0.8,0.8,0.8C82.5,136.1,82.7,136.1,82.8,136.1z"/>
	<path class="st2" d="M84,129.3c-0.3-0.3-0.5-0.6-0.5-1.1c0-0.5,0.2-0.9,0.5-1.1s0.7-0.4,1.1-0.4c0.4,0,0.7,0.1,1.1,0.4
		s0.5,0.6,0.5,1.1c0,0.5-0.2,0.8-0.5,1.1s-0.7,0.4-1.1,0.4C84.7,129.7,84.3,129.6,84,129.3z M83.7,130.1h2.7v8.3h-2.7V130.1z"/>
	<path class="st2" d="M92.1,127v2.3c-0.4-0.1-0.8-0.1-1.1,0.1c-0.3,0.1-0.4,0.4-0.4,0.6v0.5h1.4v2.2h-1.4v5.6h-2.7V130
		c0-1,0.3-1.7,0.9-2.3c0.6-0.6,1.4-0.8,2.4-0.8C91.5,126.9,91.8,126.9,92.1,127z"/>
	<path class="st2" d="M95.4,135.2v0.3c0,0.3,0.1,0.5,0.3,0.7c0.2,0.2,0.5,0.3,0.8,0.3c0.5,0,1-0.2,1.3-0.6l1.5,1.2
		c-0.7,1-1.7,1.4-3,1.4c-0.9,0-1.7-0.3-2.4-0.8s-1-1.3-1-2.2v-2.6c0-1,0.3-1.7,1-2.2c0.7-0.5,1.5-0.8,2.4-0.8c0.9,0,1.7,0.3,2.3,0.8
		c0.6,0.5,0.9,1.3,0.9,2.2v2.2H95.4z M97.2,133.4v-0.6c0-0.2-0.1-0.4-0.3-0.5s-0.4-0.2-0.6-0.2s-0.5,0.1-0.6,0.2
		c-0.2,0.1-0.3,0.3-0.3,0.6v0.5H97.2z"/>
	<path class="st2" d="M103.3,137.2l1.2-1.6c0.6,0.5,1.2,0.7,1.7,0.6c0.2,0,0.3-0.1,0.4-0.2c0.1-0.1,0.1-0.3,0-0.4
		c-0.1-0.1-0.2-0.2-0.5-0.2c-1.8-0.2-2.7-1.2-2.7-2.8c0-0.7,0.3-1.3,0.8-1.8c0.5-0.5,1.2-0.8,2.1-0.8c1.1,0,2,0.4,2.9,1.1l-1.3,1.6
		c-0.7-0.3-1.1-0.4-1.5-0.4c-0.1,0-0.2,0.1-0.3,0.2c-0.1,0.1,0,0.3,0,0.4c0.1,0.1,0.4,0.3,0.6,0.3c0.8,0.2,1.4,0.5,1.8,0.8
		c0.5,0.4,0.7,0.9,0.7,1.7c0,0.9-0.3,1.6-0.9,2.1c-0.6,0.5-1.3,0.8-2.2,0.8C105.1,138.6,104.1,138.1,103.3,137.2z"/>
	<path class="st2" d="M110.8,129.3c-0.3-0.3-0.5-0.6-0.5-1.1c0-0.5,0.2-0.9,0.5-1.1c0.3-0.3,0.7-0.4,1.1-0.4c0.4,0,0.7,0.1,1.1,0.4
		c0.3,0.3,0.5,0.6,0.5,1.1c0,0.5-0.2,0.8-0.5,1.1c-0.3,0.3-0.7,0.4-1.1,0.4C111.5,129.7,111.1,129.6,110.8,129.3z M110.5,130.1h2.7
		v8.3h-2.7V130.1z"/>
	<path class="st2" d="M114.7,138.4v-7.6c0.7-0.6,1.6-0.8,2.8-0.8c1.1,0,1.9,0.3,2.4,0.8c0.2-0.3,0.6-0.5,0.9-0.6s0.7-0.2,1.1-0.2
		c0.9,0,1.7,0.3,2.2,0.8c0.6,0.5,0.9,1.3,0.9,2.2v5.5h-2.7v-5.5c0-0.2-0.1-0.3-0.2-0.4c-0.1-0.1-0.2-0.1-0.4-0.1
		c-0.2,0-0.3,0-0.4,0.1c-0.1,0.1-0.2,0.2-0.2,0.4v5.5h-2.6v-5.5c0-0.3-0.2-0.5-0.6-0.5c-0.3,0-0.5,0.1-0.6,0.2v5.8H114.7z"/>
	<path class="st2" d="M126.5,141.4v-10.7c1.2-0.5,2.4-0.7,3.4-0.7c2.3,0,3.4,1,3.4,2.8v2.7c0,0.9-0.3,1.7-0.9,2.2
		c-0.6,0.5-1.3,0.8-2.2,0.8c-0.3,0-0.7-0.1-1-0.2v3H126.5z M129.2,132.2v4c0.2,0.1,0.4,0.1,0.6,0.1c0.2,0,0.4-0.1,0.6-0.2
		c0.2-0.1,0.2-0.3,0.2-0.6v-2.8c0-0.2-0.1-0.4-0.2-0.5c-0.2-0.1-0.4-0.2-0.6-0.2C129.6,132.1,129.4,132.1,129.2,132.2z"/>
	<path class="st2" d="M138.5,136.1v2.4c-0.3,0.1-0.6,0.1-0.9,0.1c-0.9,0-1.6-0.3-2.2-0.8c-0.6-0.6-0.8-1.3-0.8-2.3v-8.3h2.7v8.3
		c0,0.5,0.3,0.8,0.8,0.8C138.2,136.1,138.3,136.1,138.5,136.1z"/>
	<path class="st2" d="M141.6,135.2v0.3c0,0.3,0.1,0.5,0.3,0.7c0.2,0.2,0.5,0.3,0.8,0.3c0.5,0,1-0.2,1.3-0.6l1.5,1.2
		c-0.7,1-1.7,1.4-3,1.4c-0.9,0-1.7-0.3-2.4-0.8s-1-1.3-1-2.2v-2.6c0-1,0.3-1.7,1-2.2c0.7-0.5,1.5-0.8,2.4-0.8c0.9,0,1.7,0.3,2.3,0.8
		c0.6,0.5,0.9,1.3,0.9,2.2v2.2H141.6z M143.4,133.4v-0.6c0-0.2-0.1-0.4-0.3-0.5c-0.2-0.1-0.4-0.2-0.6-0.2c-0.2,0-0.5,0.1-0.6,0.2
		c-0.2,0.1-0.3,0.3-0.3,0.6v0.5H143.4z"/>
</g>
<path class="st0" d="M0,6.6h14l11.6,27l11.7-27h14v55.2h-14l0.1-15.9l0.9-11.2l-0.5-0.1l-7.3,19h-9.7l-7.4-19l-0.4,0.1L14,45.9v15.9
	H0L0,6.6z"/>
<path class="st0" d="M93.9,60.9c0,12.1-6.9,18.2-16.8,18.2c-5.4,0-10.6-1.9-14.6-5.5l5.2-8.1c2.2,1.4,4.8,2.3,7.4,2.4
	c4.2,0,6.2-2.6,6.2-6.2c-2,0.7-4,1-6.1,0.9C68.1,62.6,61,58.6,61,49V21.4h12.7v26.8c0,2.6,2,3.7,4.1,3.7c1.1,0,2.2-0.3,3.1-0.9V21.4
	h13L93.9,60.9z"/>
<path class="st0" d="M122.1,62c-1.5,0.4-2.9,0.6-4.4,0.6c-8.6,0.1-14.7-5.5-14.7-15.4V6.6h13.2v40.5c0,1.9,1,3.7,4,3.7
	c0.7,0,1.3-0.1,2-0.2L122.1,62z"/>
<path class="st0" d="M132.3,48.3c2.8,2.1,5.9,3.2,8.5,3c2.8-0.2,3-3.6-0.5-4.1c-10.9-1.4-13.3-7.7-13.3-13.6s4.8-13,14.1-13
	c5.2,0,10.1,1.8,14,5.2l-6.4,8c-3.7-1.7-5.8-2-7.1-1.8c-1,0.2-1.7,1.2-1.5,2.2c0.1,0.3,0.2,0.6,0.4,0.8c0.8,0.8,1.9,1.3,3,1.6
	c5.9,1.5,12.3,4.1,12.3,12.2c0,9.2-7.3,13.9-15,13.9c-5.6,0.2-10.9-2.3-14.4-6.6L132.3,48.3z"/>
<path class="st0" d="M157.7,0l-1,0.8C153,3.5,148.6,5,144,5c-4.9-0.1-9.6-1.6-13.7-4.3l-1-0.6l-4.4,6.5l1,0.7
	c5.3,3.8,11.6,5.9,18.1,6c6.2,0,12.3-2.2,17-6.3l0.8-0.7L157.7,0z"/>
</svg>
