<svg xmlns="http://www.w3.org/2000/svg" viewBox="0 0 161.8 163.43"><defs><style>.cls-1{fill:#fff;}.cls-2{fill:#71d78e;}</style></defs><title>Myls</title><g id="Layer_2" data-name="Layer 2"><g id="Layer_1-2" data-name="Layer 1"><rect class="cls-1" x="0.1" y="103.97" width="159.5" height="59.46"/><polygon class="cls-1" points="146.89 82.48 146.89 108.68 129 108.68 146.89 82.48"/><path class="cls-2" d="M11.2,138.4V127.07h2.86l2.38,5.54,2.4-5.54h2.87V138.4H18.83v-3.26l.18-2.29-.1,0-1.48,3.89h-2L14,132.83l-.08,0,.19,2.29v3.26Z"/><path class="cls-2" d="M26.09,133.23a5,5,0,0,1,1,.07,1,1,0,0,0-1.12-1.19,2.14,2.14,0,0,0-1.44.6l-1.25-1.27A3.69,3.69,0,0,1,26.38,130a3.66,3.66,0,0,1,2.33.76,2.67,2.67,0,0,1,.95,2.2V138a9.33,9.33,0,0,1-3.2.56,4.12,4.12,0,0,1-2.61-.71,2.51,2.51,0,0,1-.88-2,2.38,2.38,0,0,1,.81-1.85A3.37,3.37,0,0,1,26.09,133.23Zm.93,3.25v-1.42a1.43,1.43,0,0,0-1,0,.72.72,0,0,0-.48.7.69.69,0,0,0,.53.72A1.52,1.52,0,0,0,27,136.48Z"/><path class="cls-2" d="M33.68,132.69l1.77-2.58h3l-3,4,3,4.27H35.31l-1.63-2.65v2.65H31.1V127.07h2.58Z"/><path class="cls-2" d="M41.07,135.22v.3a.81.81,0,0,0,.34.69,1.36,1.36,0,0,0,.82.26,1.57,1.57,0,0,0,1.27-.56l1.5,1.21a3.41,3.41,0,0,1-3,1.44,3.8,3.8,0,0,1-2.41-.8,2.66,2.66,0,0,1-1-2.24v-2.59a2.62,2.62,0,0,1,1-2.22A3.91,3.91,0,0,1,42,130a3.43,3.43,0,0,1,2.29.79,2.74,2.74,0,0,1,.94,2.24v2.24Zm1.84-1.78v-.59a.62.62,0,0,0-.27-.53,1,1,0,0,0-.63-.19,1.08,1.08,0,0,0-.64.2.66.66,0,0,0-.27.57v.54Z"/><path class="cls-2" d="M56.08,130.11v8.1a3.84,3.84,0,0,1-.94,2.77,3.33,3.33,0,0,1-2.5,1,4.54,4.54,0,0,1-3-1.12l1.08-1.67a3,3,0,0,0,1.52.5,1.26,1.26,0,0,0,.94-.34,1.35,1.35,0,0,0,.32-.94,3.46,3.46,0,0,1-1.25.19,3.14,3.14,0,0,1-2.07-.7,2.55,2.55,0,0,1-.86-2.08v-5.67h2.61v5.49a.65.65,0,0,0,.25.56.92.92,0,0,0,.6.19,1.22,1.22,0,0,0,.64-.17v-6.07Z"/><path class="cls-2" d="M57.4,135.63V133a2.72,2.72,0,0,1,1-2.24,3.86,3.86,0,0,1,4.76,0,2.67,2.67,0,0,1,1,2.24v2.62a2.56,2.56,0,0,1-1,2.16,3.81,3.81,0,0,1-2.38.77,3.88,3.88,0,0,1-2.38-.78A2.57,2.57,0,0,1,57.4,135.63Zm3.88-3.11a.84.84,0,0,0-.5-.17.89.89,0,0,0-.51.17A.53.53,0,0,0,60,133v2.71a.53.53,0,0,0,.23.44.81.81,0,0,0,1,0,.53.53,0,0,0,.23-.44V133A.51.51,0,0,0,61.28,132.52Z"/><path class="cls-2" d="M72.19,130.11v7.78a6.73,6.73,0,0,1-3,.67,4.63,4.63,0,0,1-2.7-.73,2.73,2.73,0,0,1-1-2.39v-5.33h2.68v5.32a.69.69,0,0,0,.24.57,1,1,0,0,0,.61.19,1.44,1.44,0,0,0,.51-.09v-6Z"/><path class="cls-2" d="M77,130a5.93,5.93,0,0,1,1.4.21v2.35a1.66,1.66,0,0,0-1.33-.08.88.88,0,0,0-.69.88v5.09h-2.7v-5.21a3,3,0,0,1,.92-2.43A3.49,3.49,0,0,1,77,130Z"/><path class="cls-2" d="M85.83,136.08v2.35a3.56,3.56,0,0,1-.91.13,2.86,2.86,0,0,1-2.17-.82,3.15,3.15,0,0,1-.84-2.33v-8.34h2.71v8.31q0,.75.81.75A2.08,2.08,0,0,0,85.83,136.08Z"/><path class="cls-2" d="M87,129.3a1.53,1.53,0,0,1,0-2.24,1.55,1.55,0,0,1,1.06-.39,1.69,1.69,0,0,1,1.07.4,1.38,1.38,0,0,1,.48,1.11,1.35,1.35,0,0,1-.48,1.1,1.7,1.7,0,0,1-1.07.41A1.66,1.66,0,0,1,87,129.3Zm-.27.81H89.4v8.29H86.71Z"/><path class="cls-2" d="M95.15,127v2.32a1.59,1.59,0,0,0-1.08.07.69.69,0,0,0-.43.63v.52h1.44v2.24H93.64v5.61h-2.7V130a3,3,0,0,1,.88-2.27,3.27,3.27,0,0,1,2.37-.84A5,5,0,0,1,95.15,127Z"/><path class="cls-2" d="M98.38,135.22v.3a.81.81,0,0,0,.34.69,1.36,1.36,0,0,0,.82.26,1.57,1.57,0,0,0,1.27-.56l1.5,1.21a3.41,3.41,0,0,1-3,1.44,3.8,3.8,0,0,1-2.41-.8,2.66,2.66,0,0,1-1-2.24v-2.59a2.62,2.62,0,0,1,1-2.22,3.91,3.91,0,0,1,2.4-.76,3.43,3.43,0,0,1,2.29.79,2.74,2.74,0,0,1,.94,2.24v2.24Zm1.84-1.78v-.59a.62.62,0,0,0-.27-.53,1,1,0,0,0-.63-.19,1.08,1.08,0,0,0-.64.2.66.66,0,0,0-.27.57v.54Z"/><path class="cls-2" d="M106.31,137.22l1.2-1.6a2.53,2.53,0,0,0,1.75.61.45.45,0,0,0,.38-.21.33.33,0,0,0,0-.39.65.65,0,0,0-.46-.24c-1.81-.23-2.72-1.16-2.72-2.78a2.61,2.61,0,0,1,.78-1.83,2.76,2.76,0,0,1,2.12-.83A4.32,4.32,0,0,1,112.2,131l-1.31,1.63a2.86,2.86,0,0,0-1.46-.37.4.4,0,0,0-.27.23.34.34,0,0,0,0,.38,1.35,1.35,0,0,0,.62.32,4.71,4.71,0,0,1,1.83.84,2,2,0,0,1,.69,1.65,2.58,2.58,0,0,1-.9,2.1,3.28,3.28,0,0,1-2.18.75A3.75,3.75,0,0,1,106.31,137.22Z"/><path class="cls-2" d="M113.78,129.3a1.52,1.52,0,0,1,0-2.24,1.55,1.55,0,0,1,1.06-.39,1.69,1.69,0,0,1,1.07.4,1.38,1.38,0,0,1,.48,1.11,1.35,1.35,0,0,1-.48,1.1,1.7,1.7,0,0,1-1.07.41A1.66,1.66,0,0,1,113.78,129.3Zm-.27.81h2.69v8.29h-2.69Z"/><path class="cls-2" d="M117.72,138.4v-7.61a4.41,4.41,0,0,1,2.77-.84,3.29,3.29,0,0,1,2.43.85,2.49,2.49,0,0,1,.92-.62,2.87,2.87,0,0,1,1.08-.23,3.33,3.33,0,0,1,2.25.76A2.81,2.81,0,0,1,128,133v5.45h-2.69v-5.49a.41.41,0,0,0-.16-.36.64.64,0,0,0-.4-.13.68.68,0,0,0-.42.13.4.4,0,0,0-.18.35v5.5h-2.61v-5.53c0-.31-.21-.47-.61-.47a.79.79,0,0,0-.59.21v5.79Z"/><path class="cls-2" d="M129.48,141.38V130.66a9.56,9.56,0,0,1,3.42-.71q3.38,0,3.38,2.85v2.74a2.81,2.81,0,0,1-.91,2.2,3.12,3.12,0,0,1-2.16.82,3.37,3.37,0,0,1-1-.16v3Zm2.72-9.2v4a1.06,1.06,0,0,0,.62.11.92.92,0,0,0,.56-.21.68.68,0,0,0,.23-.56v-2.83a.58.58,0,0,0-.24-.49,1,1,0,0,0-.59-.16A1.56,1.56,0,0,0,132.2,132.18Z"/><path class="cls-2" d="M141.46,136.08v2.35a3.56,3.56,0,0,1-.91.13,2.86,2.86,0,0,1-2.17-.82,3.15,3.15,0,0,1-.84-2.33v-8.34h2.71v8.31c0,.5.27.75.82.75A2,2,0,0,0,141.46,136.08Z"/><path class="cls-2" d="M144.6,135.22v.3a.83.83,0,0,0,.34.69,1.37,1.37,0,0,0,.83.26,1.56,1.56,0,0,0,1.26-.56l1.51,1.21a3.42,3.42,0,0,1-3,1.44,3.83,3.83,0,0,1-2.42-.8,2.68,2.68,0,0,1-1-2.24v-2.59a2.62,2.62,0,0,1,1-2.22,4,4,0,0,1,2.4-.76,3.43,3.43,0,0,1,2.29.79,2.75,2.75,0,0,1,.95,2.24v2.24Zm1.84-1.78v-.59a.64.64,0,0,0-.26-.53,1.05,1.05,0,0,0-.64-.19,1.1,1.1,0,0,0-.64.2.66.66,0,0,0-.27.57v.54Z"/><path class="cls-1" d="M0,6.61H14l11.63,27,11.7-27h14V61.84h-14l.08-15.92.85-11.15-.46-.08-7.26,19H20.83l-7.41-19-.39.08L14,45.92V61.84H0Z"/><path class="cls-1" d="M93.93,60.9c0,12.09-6.87,18.18-16.78,18.18a21.8,21.8,0,0,1-14.58-5.46l5.22-8.12a15.61,15.61,0,0,0,7.41,2.42c4.22,0,6.17-2.57,6.17-6.24a18,18,0,0,1-6.09.94C68.11,62.62,61,58.56,61,49V21.43H73.72V48.19c0,2.57,2,3.66,4.14,3.66A5.81,5.81,0,0,0,81,51V21.43h13Z"/><path class="cls-1" d="M122.09,62a18,18,0,0,1-4.45.63c-8.58.07-14.66-5.54-14.66-15.37V6.61h13.18V47.09c0,1.95,1,3.67,4,3.67a9.22,9.22,0,0,0,2-.23Z"/><path class="cls-1" d="M132.31,48.26c2.81,2.11,5.93,3.2,8.5,3,2.81-.24,3-3.59-.47-4.06-10.84-1.4-13.26-7.64-13.26-13.57s4.76-13,14.12-13a20.85,20.85,0,0,1,14,5.23l-6.4,8c-3.67-1.71-5.77-2-7.1-1.79a1.87,1.87,0,0,0-1.09,3,5.84,5.84,0,0,0,3,1.56c5.85,1.48,12.25,4.14,12.25,12.17,0,9.21-7.26,13.89-15,13.89a17.88,17.88,0,0,1-14.43-6.56Z"/><path class="cls-1" d="M157.67,0l-1,.75A21.31,21.31,0,0,1,144,5,25.86,25.86,0,0,1,130.3.71l-1-.64-4.35,6.45,1,.7a31.36,31.36,0,0,0,18.06,6,25.6,25.6,0,0,0,17-6.29l.81-.72Z"/></g></g></svg>