<svg xmlns="http://www.w3.org/2000/svg" viewBox="0 0 99.22 77.51"><title>nk</title><g id="202e9f64-2af4-4d0d-afd1-1d4a42794eec" data-name="Layer 2"><g id="4a9bae88-43d0-434b-bf8e-3c52e8356321" data-name="Layer 1"><path d="M99.22,7.63V0H0V7.63H3.63V15.7H0v46H3.63v8.07H0v7.75H99.22V69.76H95.48V61.69h3.74v-46H95.48V7.63ZM16.53,8c0-.19.13-.34.39-.34H18.1c.26,0,.4.15.4.34v2.74h2.09V8c0-.19.14-.34.4-.34h1.18c.26,0,.39.15.39.34v7.34a.35.35,0,0,1-.38.34H21a.37.37,0,0,1-.4-.34V12.49H18.5v2.84a.37.37,0,0,1-.4.34H16.92a.37.37,0,0,1-.39-.34Zm6.29,61.73H21.36a.55.55,0,0,1-.55-.33l-1.66-3-.67.77v2.18a.37.37,0,0,1-.4.33H16.92a.36.36,0,0,1-.39-.33V62c0-.19.13-.33.39-.33h1.16c.26,0,.4.14.4.33v2.5L20.54,62c.26-.31.32-.31.58-.31h1.66c.17,0,.25,0,.25.14a.31.31,0,0,1-.09.18L20.47,65l2.58,4.36a.47.47,0,0,1,.09.25C23.14,69.72,22.94,69.72,22.82,69.72Zm19.11-.33a.36.36,0,0,1-.39.33H40.35a.36.36,0,0,1-.39-.33v-4l-2.4,4.09a.51.51,0,0,1-.49.28h-1c-.26,0-.4-.14-.4-.33V62a.37.37,0,0,1,.4-.33h1.18a.36.36,0,0,1,.39.33v4L40.05,62a.54.54,0,0,1,.5-.28h1c.26,0,.39.14.39.33Zm0-53.72H40.65a.4.4,0,0,1-.47-.34l-.27-.86H37.44l-.28.86a.41.41,0,0,1-.47.34H35.43c-.21,0-.33-.06-.33-.22a.74.74,0,0,1,0-.18l2.7-7.38c.07-.21.2-.24.4-.24h.87c.22,0,.34,0,.43.28l2.68,7.34a.74.74,0,0,1,0,.18C42.24,15.61,42.12,15.67,41.91,15.67ZM62.36,69.39a.36.36,0,0,1-.39.33H60.78a.36.36,0,0,1-.39-.33V66.55h-2.1v2.84a.36.36,0,0,1-.39.33H56.71a.36.36,0,0,1-.39-.33V62c0-.19.13-.33.39-.33H57.9c.26,0,.39.14.39.33v2.75h2.1V62c0-.19.13-.33.39-.33H62c.26,0,.4.14.4.33Zm1.91-54.06a.33.33,0,0,1-.34.34H55.21c-.26,0-.39-.15-.39-.34V8a.37.37,0,0,1,.39-.34H56.4a.37.37,0,0,1,.39.34v5.92h1.77V8A.37.37,0,0,1,59,7.65h1.2a.36.36,0,0,1,.38.34v5.92H62.3V8a.37.37,0,0,1,.39-.34h1.19a.36.36,0,0,1,.39.34ZM81.69,68.89a3.24,3.24,0,0,1-4.48,0,3.88,3.88,0,0,1-.81-3v-.51c0-1.56.18-2.24.81-2.89a2.9,2.9,0,0,1,2.23-.9,3,3,0,0,1,2.25.9A3.27,3.27,0,0,1,82.5,65v.71C82.5,66.88,82.54,68,81.69,68.89ZM82.54,9a.36.36,0,0,1-.34.4H79.06v1.34H81.7c.23,0,.33.16.33.39v1a.35.35,0,0,1-.33.39H79.06v1.41H82.2a.36.36,0,0,1,.34.39v1a.35.35,0,0,1-.34.4H77.49a.38.38,0,0,1-.4-.34V8a.4.4,0,0,1,.4-.34H82.2a.34.34,0,0,1,.34.39Z" style="fill:#231f20"/><path d="M79.45,63.39a1,1,0,0,0-.79.35,3,3,0,0,0-.29,1.64v.55c0,1,.07,1.47.29,1.74a1,1,0,0,0,.79.36,1,1,0,0,0,.79-.36c.21-.27.29-.72.29-1.74v-.55a3.14,3.14,0,0,0-.29-1.64A1,1,0,0,0,79.45,63.39Z" style="fill:#231f20"/><polygon points="37.99 12.83 39.39 12.83 38.72 10.69 37.99 12.83" style="fill:#231f20"/></g></g></svg>