<svg id="Layer_1" data-name="Layer 1" xmlns="http://www.w3.org/2000/svg" viewBox="0 0 700 114"><defs><style>.cls-1{fill:#262261;}.cls-2{fill:#c1272d;}.cls-3{fill:#fff;}</style></defs><title>logo_cardio_2020</title><rect class="cls-1" x="668.17" y="7.86" width="31.83" height="65.85"/><path class="cls-1" d="M136.26,89.63v17.58h-2.93V89.63Z"/><path class="cls-1" d="M143,89.63h4.27L164.07,105V89.63H167v17.58h-4.42l-16.7-15.29v15.29H143Z"/><path class="cls-1" d="M174,89.63h20.51V92h-8.78v15.22h-2.92V92H174Z"/><path class="cls-1" d="M199.36,89.63h18.8V92H202.29v5.14h15.32v2.36H202.29v5.36h15.87v2.36h-18.8Z"/><path class="cls-1" d="M228.12,100.87v6.34h-2.93V89.63h17.62a4.84,4.84,0,0,1,3.84,1.53A6,6,0,0,1,248,95.25a5.6,5.6,0,0,1-.77,3.27,3.7,3.7,0,0,1-1.75,1.23,4.26,4.26,0,0,1,1.66,1,2.9,2.9,0,0,1,.86,2.15v4.3h-2.92V102.9a1.69,1.69,0,0,0-.93-1.45,4.25,4.25,0,0,0-2.25-.58Zm0-8.88v6.52h13.49A4.36,4.36,0,0,0,244,98a3.11,3.11,0,0,0,1.12-2.77A3.07,3.07,0,0,0,244,92.51a4.31,4.31,0,0,0-2.38-.52Z"/><path class="cls-1" d="M255.15,89.63h4.27L276.27,105V89.63h2.93v17.58h-4.42l-16.7-15.29v15.29h-2.93Z"/><path class="cls-1" d="M300.06,89.63l10.33,17.58h-3.3l-2.32-3.9h-14l-2.29,3.9h-3.3L295.5,89.63ZM303.5,101l-5.33-9.21h-.75L292.08,101Z"/><path class="cls-1" d="M314.87,89.63h20.52V92H326.6v15.22h-2.92V92h-8.81Z"/><path class="cls-1" d="M344,89.63v17.58H341V89.63Z"/><path class="cls-1" d="M350.48,98.46c0-4,.57-6.54,1.72-7.52s4.35-1.54,9.38-1.54,8.06.51,9.25,1.52,1.77,3.51,1.77,7.52S372,105,370.77,106s-4.29,1.49-9.19,1.49-8-.5-9.22-1.49S350.48,102.48,350.48,98.46Zm2.93,0q0,4.32,1.12,5.38c.93.87,3.29,1.31,7.05,1.31s6.09-.38,6.95-1.13,1.15-2.52,1.15-5.56-.39-5-1.18-5.68-3.09-1-6.92-1-6.29.31-7,.92S353.41,95.2,353.41,98.42Z"/><path class="cls-1" d="M379.46,89.63h4.28L400.58,105V89.63h2.93v17.58h-4.42l-16.7-15.29v15.29h-2.93Z"/><path class="cls-1" d="M424.37,89.63l10.33,17.58h-3.3l-2.32-3.9h-14l-2.3,3.9h-3.3l10.33-17.58ZM427.82,101l-5.34-9.21h-.75L416.39,101Z"/><path class="cls-1" d="M442,89.63v15.22h15v2.36h-18V89.63Z"/><path class="cls-1" d="M496.54,101.1h2.93c0,2.79-.65,4.55-1.93,5.28s-4.32,1.09-9.09,1.09-7.9-.52-9.18-1.54-1.92-3.52-1.92-7.47S478,92,479.25,91s4.34-1.55,9.2-1.55,7.81.36,9.1,1.08,1.92,2.48,1.92,5.28h-2.93q0-2.83-1.29-3.42c-.86-.38-3.13-.58-6.8-.58q-5.91,0-7.05.92c-.75.6-1.13,2.53-1.13,5.77s.38,5.11,1.15,5.73,3.11.93,7,.93c3.66,0,5.88-.18,6.69-.54S496.54,103,496.54,101.1Z"/><path class="cls-1" d="M506.16,98.46c0-4,.57-6.54,1.72-7.52s4.35-1.54,9.38-1.54,8.06.51,9.24,1.52,1.78,3.51,1.78,7.52-.61,6.55-1.84,7.54-4.28,1.49-9.18,1.49-8-.5-9.22-1.49S506.16,102.48,506.16,98.46Zm2.92,0c0,2.88.38,4.67,1.12,5.38q1.41,1.31,7.06,1.31c3.77,0,6.08-.38,7-1.13s1.15-2.52,1.15-5.56-.4-5-1.18-5.68-3.09-1-6.92-1-6.29.31-7,.92S509.08,95.2,509.08,98.42Z"/><path class="cls-1" d="M535.14,89.63h4.28L556.26,105V89.63h2.93v17.58h-4.42L538.06,91.92v15.29h-2.92Z"/><path class="cls-1" d="M575.57,98.25H588v2.37q0,4.62-1.79,5.73c-1.2.75-4.27,1.12-9.23,1.12s-7.9-.52-9.18-1.54-1.92-3.52-1.92-7.47.63-6.49,1.89-7.52,4.33-1.54,9.21-1.54,7.82.36,9.1,1.08S588,93,588,95.76H585q0-2.83-1.29-3.42c-.86-.38-3.12-.58-6.8-.58q-5.91,0-7,.92c-.76.6-1.14,2.53-1.14,5.77s.38,5.14,1.14,5.75,3.1.91,7,.91,6.16-.22,6.93-.64,1.16-1.71,1.16-3.85h-9.47Z"/><path class="cls-1" d="M597.79,100.87v6.34h-2.93V89.63h17.62a4.85,4.85,0,0,1,3.84,1.53,6,6,0,0,1,1.35,4.09,5.6,5.6,0,0,1-.77,3.27,3.7,3.7,0,0,1-1.75,1.23,4.34,4.34,0,0,1,1.66,1,2.9,2.9,0,0,1,.86,2.15v4.3h-2.92V102.9a1.7,1.7,0,0,0-.94-1.45,4.22,4.22,0,0,0-2.24-.58Zm0-8.88v6.52h13.49a4.36,4.36,0,0,0,2.35-.49,3.11,3.11,0,0,0,1.12-2.77,3.07,3.07,0,0,0-1.09-2.74,4.31,4.31,0,0,0-2.38-.52Z"/><path class="cls-1" d="M624.39,89.63h18.79V92H627.32v5.14h15.32v2.36H627.32v5.36h15.86v2.36H624.39Z"/><path class="cls-1" d="M668.44,95.2c0-1.5-.43-2.45-1.3-2.84s-2.89-.6-6.11-.6a28.06,28.06,0,0,0-6.61.45,2,2,0,0,0-1.33,2.08,2.43,2.43,0,0,0,1.57,2.44c1.05.43,3.18.65,6.37.65,4.73,0,7.72.31,9,.91s1.88,2,1.88,4.12a4.06,4.06,0,0,1-2.67,4.24c-1.45.54-4.4.82-8.84.82q-7.2,0-9.27-1.41-1.58-1.08-1.58-4.7h2.93c0,1.66.41,2.7,1.24,3.12s3.06.63,6.71.63a32.43,32.43,0,0,0,7-.46,2.09,2.09,0,0,0,1.59-2.24c0-1.2-.39-1.94-1.19-2.23s-3-.44-6.73-.44c-4.51,0-7.54-.48-9.1-1.46-1.18-.73-1.77-2.06-1.77-4q0-3.12,2.11-4T661,89.4q6.6,0,8.64,1.39,1.64,1.09,1.64,4.41Z"/><path class="cls-1" d="M696,95.2c0-1.5-.43-2.45-1.3-2.84s-2.89-.6-6.11-.6a28.06,28.06,0,0,0-6.61.45,2,2,0,0,0-1.34,2.08,2.43,2.43,0,0,0,1.58,2.44c1.05.43,3.18.65,6.37.65,4.73,0,7.72.31,9,.91s1.88,2,1.88,4.12a4.06,4.06,0,0,1-2.67,4.24c-1.45.54-4.4.82-8.84.82q-7.2,0-9.27-1.41Q677,105,677,101.36H680c0,1.66.41,2.7,1.24,3.12s3.06.63,6.71.63a32.43,32.43,0,0,0,7-.46,2.09,2.09,0,0,0,1.59-2.24c0-1.2-.39-1.94-1.19-2.23s-3-.44-6.73-.44c-4.51,0-7.54-.48-9.09-1.46-1.19-.73-1.78-2.06-1.78-4q0-3.12,2.11-4t8.76-.89q6.6,0,8.64,1.39,1.63,1.09,1.64,4.41Z"/><path class="cls-1" d="M88.83,112.6c6.88-13.79,31-65.77,15.35-91.78,7.12,27.53-12.84,70.52-19,82.87l.07.13s2.08.44-.19.1c0,0-1.19,2.1-.12,0C71,101.78,15.66,92.87,0,68.13c6.39,31.57,73.11,42.33,88.58,44.66-1.07,2.14.12,0,.12,0,2.27.33.2-.11.2-.11Z"/><path class="cls-1" d="M176.15,13.25V28.41Q166,22.35,158.47,22.35a15.27,15.27,0,0,0-12.13,5.21q-4.56,5.21-4.55,14,0,8.32,4.78,13.34t12.8,5q7,0,16.78-5.64V69.36Q165.2,73,157.9,73a28.34,28.34,0,0,1-21.33-9.21A31.45,31.45,0,0,1,127.8,41.3a31.88,31.88,0,0,1,8.94-22.87,28.9,28.9,0,0,1,21.73-9.36A44,44,0,0,1,176.15,13.25Z"/><path class="cls-1" d="M207.84,9.92h10.39l25.35,62.23H230.09l-5-12.23H201.23l-4.88,12.23H182.92ZM213,30.3l-7.32,18.35h14.79Z"/><path class="cls-1" d="M252.87,9.92h20.5q9.35,0,14.78,4.94t5.43,13.3a22.87,22.87,0,0,1-2.49,10q-2.49,5.16-9.19,8.1l17.41,25.94H283.9L267.8,48.07h-1.52V72.15H252.87ZM266.37,21v16.2h2.91q10.5,0,10.51-8.58a6.61,6.61,0,0,0-2.74-5.56Q274.32,21,269.47,21Z"/><path class="cls-1" d="M309.31,9.92h21.23q13.6,0,21.9,8.58t8.29,22.61q0,14.07-8.55,22.56t-22.77,8.48h-20.1Zm13.51,11.77V60.12h5.31q8.24,0,13.55-4.51t5.31-15a22.42,22.42,0,0,0-2.56-10.83,13.09,13.09,0,0,0-7.42-6.4,28.33,28.33,0,0,0-9.26-1.67Z"/><path class="cls-1" d="M370.54,9.92H384V72.15H370.54Z"/><path class="cls-1" d="M394.38,41q0-13.8,9.13-22.78a29.8,29.8,0,0,1,21.63-9q13.83,0,22.89,9t9.05,22.82q0,13.7-9,22.75t-22.56,9q-13.59,0-22.39-9T394.38,41Zm31.37-19.33a15.4,15.4,0,0,0-12.6,5.39q-4.8,5.55-4.79,14.32a19.85,19.85,0,0,0,4.88,13.74,15.86,15.86,0,0,0,12.32,5.45,16.1,16.1,0,0,0,12.63-5.38Q443,49.83,443,41t-4.71-13.94A16.45,16.45,0,0,0,425.75,21.69Z"/><path class="cls-2" d="M503.19,15.57l-8.34,9.14q-6.59-3.88-9.48-3.89a5.14,5.14,0,0,0-3.84,1.69,5.61,5.61,0,0,0-1.61,4q0,4.6,8.34,8a58.82,58.82,0,0,1,9.25,4.71A17,17,0,0,1,502.74,45a16.22,16.22,0,0,1,2.11,8.11q0,8-6.47,13.93A21.88,21.88,0,0,1,483.09,73q-9.66,0-19.09-9.09l8.81-10.29q5.93,6.12,11.09,6.11a6.7,6.7,0,0,0,4.65-2.14,6.31,6.31,0,0,0,2.22-4.52q0-4.86-10.28-8.58a33.65,33.65,0,0,1-8.34-4A14.31,14.31,0,0,1,468,35a17,17,0,0,1-1.68-7.32q0-8.29,5.4-13.46t14.13-5.17A24.56,24.56,0,0,1,503.19,15.57Z"/><path class="cls-2" d="M510.2,9.92h41.85V23.15H537.78v49H524.37v-49H510.2Z"/><path class="cls-2" d="M560.29,9.92h13.42V72.15H560.29Z"/><path class="cls-2" d="M590.64,9.92h15.94l11.65,37.31L629.89,9.92h15.37l8,62.23H640.5L635,28.36l-13.7,43.79h-6.09L601.17,28,596,72.15H583Z"/><path class="cls-2" d="M61.06,42.67a9.5,9.5,0,1,1-9.5-9.5A9.5,9.5,0,0,1,61.06,42.67Z"/><path class="cls-2" d="M24.69,23.43s9.71,1.44,21.84,15.46-1.93-9.37,6.55-19.31S44.36,26,44.36,26,30.53,26.94,24.69,23.43Z"/><path class="cls-2" d="M80.22,93.54C87.9,78.17,119.82,9,74.76.15c0,0-30.77-3.72-30.13,26.48-24.29-18-37.22,5.52-37.22,5.52-29.28,45.27,55.82,59,72.6,61.57-1,1.88.11,0,.11,0,2,.3.17-.09.17-.09ZM52.29,62.4A17.94,17.94,0,1,1,70.23,44.46,17.94,17.94,0,0,1,52.29,62.4Zm21-1.54c10-25.94-3.87-35.32-6-36.58L67,24.12l.28.16C89.53,36.13,73.3,60.86,73.3,60.86Zm2.86-34.37-.23-.13a1.91,1.91,0,0,1,.23.13c18.47,9.84,5,30.39,5,30.39C89.42,35.33,77.93,27.53,76.16,26.49Z"/><path class="cls-3" d="M67.3,24.28,67,24.12Z"/><path class="cls-3" d="M76.16,26.49a1.91,1.91,0,0,0-.23-.13Z"/><path class="cls-3" d="M675.67,13.66h2l1.86,2c3.72,4,5.76,5.89,8,5.92,1.52,0,2.85-.82,2.85-3A6.14,6.14,0,0,0,689,14.92l2.28-.95A8.45,8.45,0,0,1,693,19.21c0,3.78-2.38,5.61-5.16,5.61-3,0-5.4-2.15-8.15-5.13l-1.28-1.47h0v7h-2.68Z"/><path class="cls-3" d="M684.32,39.74c-5.5,0-8.93-2.15-8.93-6.24,0-3.9,3.56-6,8.75-6S693,29.73,693,33.71,689.32,39.74,684.32,39.74Zm-.16-9c-4.16,0-6.31,1.13-6.31,2.88,0,1.92,2.3,2.89,6.39,2.89s6.29-.92,6.29-2.86C690.53,31.93,688.41,30.72,684.16,30.72Z"/><path class="cls-3" d="M675.67,41.76h2l1.86,2c3.72,4,5.76,5.89,8,5.92,1.52,0,2.85-.81,2.85-3A6.14,6.14,0,0,0,689,43l2.28-1A8.5,8.5,0,0,1,693,47.31c0,3.78-2.38,5.61-5.16,5.61-3,0-5.4-2.15-8.15-5.13l-1.28-1.47h0v7h-2.68Z"/><path class="cls-3" d="M684.32,67.84c-5.5,0-8.93-2.15-8.93-6.24,0-3.9,3.56-6,8.75-6S693,57.83,693,61.81,689.32,67.84,684.32,67.84Zm-.16-9c-4.16,0-6.31,1.13-6.31,2.89s2.3,2.88,6.39,2.88,6.29-.92,6.29-2.86C690.53,60,688.41,58.82,684.16,58.82Z"/></svg>