<svg xmlns="http://www.w3.org/2000/svg" viewBox="0 0 93.36 71.41"><defs><style>.cls-1{fill:#fff;}</style></defs><title>Recurso 3</title><g id="Capa_2" data-name="Capa 2"><g id="Capa_1-2" data-name="Capa 1"><path d="M93.24,69.86H79.16v-6h1.9v4h4.27V64.36h1.9v3.48h6Z"/><path d="M82.49,62.66a3.6,3.6,0,0,1-1.51-.3,3.09,3.09,0,0,1-1.08-.79,3.31,3.31,0,0,1-.64-1.07,3.65,3.65,0,0,1,0-2.44A3.64,3.64,0,0,1,79.9,57,3.17,3.17,0,0,1,81,56.2a3.6,3.6,0,0,1,1.51-.3h7.43a3.52,3.52,0,0,1,1.52.3,3,3,0,0,1,1,.77,3.29,3.29,0,0,1,.65,1.09,3.49,3.49,0,0,1,0,2.44,3,3,0,0,1-.65,1.07,3,3,0,0,1-1,.79,3.52,3.52,0,0,1-1.52.3Zm7.43-2a1.34,1.34,0,0,0,1.08-.4,1.53,1.53,0,0,0,0-1.92,1.34,1.34,0,0,0-1.08-.4H82.49a1.34,1.34,0,0,0-1.08.4,1.49,1.49,0,0,0,0,1.92,1.34,1.34,0,0,0,1.08.4Z"/><path d="M93.24,53H81.06v2.34h-1.9V48.68h1.9V51H93.24Z"/><path d="M78.53,46.05l-2.79-1.78V42.14l2.79,2.61Zm4,2.1a3.6,3.6,0,0,1-1.51-.3,3.09,3.09,0,0,1-1.08-.79A3.26,3.26,0,0,1,79.26,46a3.63,3.63,0,0,1-.21-1.21,3.73,3.73,0,0,1,.21-1.22,3.64,3.64,0,0,1,.64-1.09A3.33,3.33,0,0,1,81,41.68a3.77,3.77,0,0,1,1.51-.29h7.43a3.68,3.68,0,0,1,1.52.29,3.2,3.2,0,0,1,1,.78,3.29,3.29,0,0,1,.65,1.09,3.5,3.5,0,0,1,.22,1.22A3.4,3.4,0,0,1,93.14,46a3.37,3.37,0,0,1-1.7,1.87,3.52,3.52,0,0,1-1.52.3Zm7.43-2a1.34,1.34,0,0,0,1.08-.4,1.53,1.53,0,0,0,0-1.92,1.34,1.34,0,0,0-1.08-.41H82.49a1.34,1.34,0,0,0-1.08.41,1.49,1.49,0,0,0,0,1.92,1.34,1.34,0,0,0,1.08.4Z"/><path d="M82.49,39.73a3.6,3.6,0,0,1-1.51-.3,3.22,3.22,0,0,1-1.08-.79,3.36,3.36,0,0,1-.64-1.08,3.63,3.63,0,0,1-.21-1.21A3.54,3.54,0,0,1,79.9,34,3.46,3.46,0,0,1,81,33.26,3.6,3.6,0,0,1,82.49,33h.71v2h-.71a1.34,1.34,0,0,0-1.08.41,1.49,1.49,0,0,0,0,1.92,1.34,1.34,0,0,0,1.08.4h7.43a1.34,1.34,0,0,0,1.08-.4,1.53,1.53,0,0,0,0-1.92A1.34,1.34,0,0,0,89.92,35H87.27v1.6H85.49V33h4.43a3.53,3.53,0,0,1,1.52.29,3.21,3.21,0,0,1,1.7,1.87,3.46,3.46,0,0,1,.22,1.22,3.4,3.4,0,0,1-.22,1.21,3.06,3.06,0,0,1-.65,1.08,3.09,3.09,0,0,1-1,.79,3.52,3.52,0,0,1-1.52.3Z"/><path d="M93.24,31.19H79.16V27.94q0-3.56,4.14-3.55a5.31,5.31,0,0,1,2.11.38,3,3,0,0,1,1.41,1.36L93.24,24v2.14l-6,1.87v1.21h6Zm-12.18-2h4.39V28a2.06,2.06,0,0,0-.15-.85,1.19,1.19,0,0,0-.42-.49,1.88,1.88,0,0,0-.68-.22,6.55,6.55,0,0,0-.94-.06,6.46,6.46,0,0,0-.94.06,1.81,1.81,0,0,0-.7.24,1.59,1.59,0,0,0-.56,1.42Z"/><path d="M93.24,23.68,79.16,20.53V18.85l14.08-3.14v2l-3,.6v2.74l3,.6Zm-4.92-5-5.1,1v0l5.1,1Z"/><path d="M93.24,14.72H79.16v-6h1.9v4h4.27V9.22h1.9V12.7h6Z"/><path d="M82.49,7.52A3.77,3.77,0,0,1,81,7.23a3.11,3.11,0,0,1-1.08-.8,3.31,3.31,0,0,1-.64-1.07,3.68,3.68,0,0,1-.21-1.22,3.63,3.63,0,0,1,.21-1.21,3.57,3.57,0,0,1,.64-1.1A3.31,3.31,0,0,1,81,1.06a3.6,3.6,0,0,1,1.51-.3h7.43a3.52,3.52,0,0,1,1.52.3,3.18,3.18,0,0,1,1,.77,3.24,3.24,0,0,1,.65,1.1,3.4,3.4,0,0,1,.22,1.21,3.46,3.46,0,0,1-.22,1.22,3,3,0,0,1-.65,1.07,3,3,0,0,1-1,.8,3.68,3.68,0,0,1-1.52.29Zm7.43-2A1.34,1.34,0,0,0,91,5.1a1.43,1.43,0,0,0,.34-1,1.43,1.43,0,0,0-.34-1,1.34,1.34,0,0,0-1.08-.4H82.49a1.34,1.34,0,0,0-1.08.4,1.49,1.49,0,0,0,0,1.92,1.34,1.34,0,0,0,1.08.41Z"/><path d="M30.26,0V54.1a17.16,17.16,0,0,1-4.54,12.14A16.84,16.84,0,0,1,20.35,70a17.68,17.68,0,0,1-7.24,1.39,14.11,14.11,0,0,1-8-2.14A26.59,26.59,0,0,1,0,65l7.88-6.36a10.16,10.16,0,0,0,2.52,1.84,6.34,6.34,0,0,0,3,.74,7.41,7.41,0,0,0,2.07-.34,5.8,5.8,0,0,0,2.27-1.35A6.43,6.43,0,0,0,19.51,57a11.37,11.37,0,0,0,.69-4.33V0Z"/><rect x="32.72" y="0.23" width="42.17" height="70.87"/><path class="cls-1" d="M37.45,70.81V0H52.53a22.45,22.45,0,0,1,7.29,1.09A14.2,14.2,0,0,1,65.54,5a15.12,15.12,0,0,1,3.54,6.52,40.86,40.86,0,0,1,1,10.09,50.81,50.81,0,0,1-.54,8.06,16.73,16.73,0,0,1-2.32,6.16,14.72,14.72,0,0,1-5.52,5.42,18.34,18.34,0,0,1-9.06,1.94H47.5V70.81Zm10-61.26V33.62h4.83a10.14,10.14,0,0,0,4.73-.9,5.66,5.66,0,0,0,2.47-2.49,9.25,9.25,0,0,0,.93-3.68c.1-1.45.15-3.08.15-4.87s0-3.23-.1-4.72A10.28,10.28,0,0,0,59.62,13a5.61,5.61,0,0,0-2.36-2.59,9.39,9.39,0,0,0-4.53-.89Z"/><rect x="32.82" y="35.17" width="41.86" height="3.13"/><rect class="cls-1" x="19.41" y="35.36" width="12.72" height="2.74"/></g></g></svg>